<?xml version="1.0" encoding="utf-8" standalone="no"?>
<!DOCTYPE svg PUBLIC "-//W3C//DTD SVG 1.1//EN"
  "http://www.w3.org/Graphics/SVG/1.1/DTD/svg11.dtd">
<svg xmlns:xlink="http://www.w3.org/1999/xlink" width="461.065312pt" height="271.919688pt" viewBox="0 0 461.065312 271.919688" xmlns="http://www.w3.org/2000/svg" version="1.1">
 <metadata>
  <rdf:RDF xmlns:dc="http://purl.org/dc/elements/1.1/" xmlns:cc="http://creativecommons.org/ns#" xmlns:rdf="http://www.w3.org/1999/02/22-rdf-syntax-ns#">
   <cc:Work>
    <dc:type rdf:resource="http://purl.org/dc/dcmitype/StillImage"/>
    <dc:date>2022-11-14T22:16:14.671128</dc:date>
    <dc:format>image/svg+xml</dc:format>
    <dc:creator>
     <cc:Agent>
      <dc:title>Matplotlib v3.6.2, https://matplotlib.org/</dc:title>
     </cc:Agent>
    </dc:creator>
   </cc:Work>
  </rdf:RDF>
 </metadata>
 <defs>
  <style type="text/css">*{stroke-linejoin: round; stroke-linecap: butt}</style>
 </defs>
 <g id="figure_1">
  <g id="patch_1">
   <path d="M 0 271.919688 
L 461.065312 271.919688 
L 461.065312 0 
L 0 0 
z
" style="fill: #ffffff"/>
  </g>
  <g id="axes_1">
   <g id="patch_2">
    <path d="M 119.065313 228.96 
L 453.865313 228.96 
L 453.865313 7.2 
L 119.065313 7.2 
z
" style="fill: #ffffff"/>
   </g>
   <g id="matplotlib.axis_1">
    <g id="xtick_1">
     <g id="line2d_1">
      <path d="M 148.380064 228.96 
L 148.380064 7.2 
" clip-path="url(#pf5a648d8ea)" style="fill: none; stroke: #cccccc; stroke-linecap: round"/>
     </g>
     <g id="line2d_2">
      <defs>
       <path id="m67f6b3b125" d="M 0 0 
L 0 6 
" style="stroke: #262626; stroke-width: 1.25"/>
      </defs>
      <g>
       <use xlink:href="#m67f6b3b125" x="148.380064" y="228.96" style="fill: #262626; stroke: #262626; stroke-width: 1.25"/>
      </g>
     </g>
     <g id="text_1">
      <!-- 6 -->
      <g style="fill: #262626" transform="translate(144.880689 246.818281) scale(0.11 -0.11)">
       <defs>
        <path id="DejaVuSans-36" d="M 2113 2584 
Q 1688 2584 1439 2293 
Q 1191 2003 1191 1497 
Q 1191 994 1439 701 
Q 1688 409 2113 409 
Q 2538 409 2786 701 
Q 3034 994 3034 1497 
Q 3034 2003 2786 2293 
Q 2538 2584 2113 2584 
z
M 3366 4563 
L 3366 3988 
Q 3128 4100 2886 4159 
Q 2644 4219 2406 4219 
Q 1781 4219 1451 3797 
Q 1122 3375 1075 2522 
Q 1259 2794 1537 2939 
Q 1816 3084 2150 3084 
Q 2853 3084 3261 2657 
Q 3669 2231 3669 1497 
Q 3669 778 3244 343 
Q 2819 -91 2113 -91 
Q 1303 -91 875 529 
Q 447 1150 447 2328 
Q 447 3434 972 4092 
Q 1497 4750 2381 4750 
Q 2619 4750 2861 4703 
Q 3103 4656 3366 4563 
z
" transform="scale(0.015625)"/>
       </defs>
       <use xlink:href="#DejaVuSans-36"/>
      </g>
     </g>
    </g>
    <g id="xtick_2">
     <g id="line2d_3">
      <path d="M 187.420171 228.96 
L 187.420171 7.2 
" clip-path="url(#pf5a648d8ea)" style="fill: none; stroke: #cccccc; stroke-linecap: round"/>
     </g>
     <g id="line2d_4">
      <g>
       <use xlink:href="#m67f6b3b125" x="187.420171" y="228.96" style="fill: #262626; stroke: #262626; stroke-width: 1.25"/>
      </g>
     </g>
     <g id="text_2">
      <!-- 8 -->
      <g style="fill: #262626" transform="translate(183.920796 246.818281) scale(0.11 -0.11)">
       <defs>
        <path id="DejaVuSans-38" d="M 2034 2216 
Q 1584 2216 1326 1975 
Q 1069 1734 1069 1313 
Q 1069 891 1326 650 
Q 1584 409 2034 409 
Q 2484 409 2743 651 
Q 3003 894 3003 1313 
Q 3003 1734 2745 1975 
Q 2488 2216 2034 2216 
z
M 1403 2484 
Q 997 2584 770 2862 
Q 544 3141 544 3541 
Q 544 4100 942 4425 
Q 1341 4750 2034 4750 
Q 2731 4750 3128 4425 
Q 3525 4100 3525 3541 
Q 3525 3141 3298 2862 
Q 3072 2584 2669 2484 
Q 3125 2378 3379 2068 
Q 3634 1759 3634 1313 
Q 3634 634 3220 271 
Q 2806 -91 2034 -91 
Q 1263 -91 848 271 
Q 434 634 434 1313 
Q 434 1759 690 2068 
Q 947 2378 1403 2484 
z
M 1172 3481 
Q 1172 3119 1398 2916 
Q 1625 2713 2034 2713 
Q 2441 2713 2670 2916 
Q 2900 3119 2900 3481 
Q 2900 3844 2670 4047 
Q 2441 4250 2034 4250 
Q 1625 4250 1398 4047 
Q 1172 3844 1172 3481 
z
" transform="scale(0.015625)"/>
       </defs>
       <use xlink:href="#DejaVuSans-38"/>
      </g>
     </g>
    </g>
    <g id="xtick_3">
     <g id="line2d_5">
      <path d="M 226.460277 228.96 
L 226.460277 7.2 
" clip-path="url(#pf5a648d8ea)" style="fill: none; stroke: #cccccc; stroke-linecap: round"/>
     </g>
     <g id="line2d_6">
      <g>
       <use xlink:href="#m67f6b3b125" x="226.460277" y="228.96" style="fill: #262626; stroke: #262626; stroke-width: 1.25"/>
      </g>
     </g>
     <g id="text_3">
      <!-- 10 -->
      <g style="fill: #262626" transform="translate(219.461527 246.818281) scale(0.11 -0.11)">
       <defs>
        <path id="DejaVuSans-31" d="M 794 531 
L 1825 531 
L 1825 4091 
L 703 3866 
L 703 4441 
L 1819 4666 
L 2450 4666 
L 2450 531 
L 3481 531 
L 3481 0 
L 794 0 
L 794 531 
z
" transform="scale(0.015625)"/>
        <path id="DejaVuSans-30" d="M 2034 4250 
Q 1547 4250 1301 3770 
Q 1056 3291 1056 2328 
Q 1056 1369 1301 889 
Q 1547 409 2034 409 
Q 2525 409 2770 889 
Q 3016 1369 3016 2328 
Q 3016 3291 2770 3770 
Q 2525 4250 2034 4250 
z
M 2034 4750 
Q 2819 4750 3233 4129 
Q 3647 3509 3647 2328 
Q 3647 1150 3233 529 
Q 2819 -91 2034 -91 
Q 1250 -91 836 529 
Q 422 1150 422 2328 
Q 422 3509 836 4129 
Q 1250 4750 2034 4750 
z
" transform="scale(0.015625)"/>
       </defs>
       <use xlink:href="#DejaVuSans-31"/>
       <use xlink:href="#DejaVuSans-30" x="63.623047"/>
      </g>
     </g>
    </g>
    <g id="xtick_4">
     <g id="line2d_7">
      <path d="M 265.500384 228.96 
L 265.500384 7.2 
" clip-path="url(#pf5a648d8ea)" style="fill: none; stroke: #cccccc; stroke-linecap: round"/>
     </g>
     <g id="line2d_8">
      <g>
       <use xlink:href="#m67f6b3b125" x="265.500384" y="228.96" style="fill: #262626; stroke: #262626; stroke-width: 1.25"/>
      </g>
     </g>
     <g id="text_4">
      <!-- 12 -->
      <g style="fill: #262626" transform="translate(258.501634 246.818281) scale(0.11 -0.11)">
       <defs>
        <path id="DejaVuSans-32" d="M 1228 531 
L 3431 531 
L 3431 0 
L 469 0 
L 469 531 
Q 828 903 1448 1529 
Q 2069 2156 2228 2338 
Q 2531 2678 2651 2914 
Q 2772 3150 2772 3378 
Q 2772 3750 2511 3984 
Q 2250 4219 1831 4219 
Q 1534 4219 1204 4116 
Q 875 4013 500 3803 
L 500 4441 
Q 881 4594 1212 4672 
Q 1544 4750 1819 4750 
Q 2544 4750 2975 4387 
Q 3406 4025 3406 3419 
Q 3406 3131 3298 2873 
Q 3191 2616 2906 2266 
Q 2828 2175 2409 1742 
Q 1991 1309 1228 531 
z
" transform="scale(0.015625)"/>
       </defs>
       <use xlink:href="#DejaVuSans-31"/>
       <use xlink:href="#DejaVuSans-32" x="63.623047"/>
      </g>
     </g>
    </g>
    <g id="xtick_5">
     <g id="line2d_9">
      <path d="M 304.540491 228.96 
L 304.540491 7.2 
" clip-path="url(#pf5a648d8ea)" style="fill: none; stroke: #cccccc; stroke-linecap: round"/>
     </g>
     <g id="line2d_10">
      <g>
       <use xlink:href="#m67f6b3b125" x="304.540491" y="228.96" style="fill: #262626; stroke: #262626; stroke-width: 1.25"/>
      </g>
     </g>
     <g id="text_5">
      <!-- 14 -->
      <g style="fill: #262626" transform="translate(297.541741 246.818281) scale(0.11 -0.11)">
       <defs>
        <path id="DejaVuSans-34" d="M 2419 4116 
L 825 1625 
L 2419 1625 
L 2419 4116 
z
M 2253 4666 
L 3047 4666 
L 3047 1625 
L 3713 1625 
L 3713 1100 
L 3047 1100 
L 3047 0 
L 2419 0 
L 2419 1100 
L 313 1100 
L 313 1709 
L 2253 4666 
z
" transform="scale(0.015625)"/>
       </defs>
       <use xlink:href="#DejaVuSans-31"/>
       <use xlink:href="#DejaVuSans-34" x="63.623047"/>
      </g>
     </g>
    </g>
    <g id="xtick_6">
     <g id="line2d_11">
      <path d="M 343.580598 228.96 
L 343.580598 7.2 
" clip-path="url(#pf5a648d8ea)" style="fill: none; stroke: #cccccc; stroke-linecap: round"/>
     </g>
     <g id="line2d_12">
      <g>
       <use xlink:href="#m67f6b3b125" x="343.580598" y="228.96" style="fill: #262626; stroke: #262626; stroke-width: 1.25"/>
      </g>
     </g>
     <g id="text_6">
      <!-- 16 -->
      <g style="fill: #262626" transform="translate(336.581848 246.818281) scale(0.11 -0.11)">
       <use xlink:href="#DejaVuSans-31"/>
       <use xlink:href="#DejaVuSans-36" x="63.623047"/>
      </g>
     </g>
    </g>
    <g id="xtick_7">
     <g id="line2d_13">
      <path d="M 382.620705 228.96 
L 382.620705 7.2 
" clip-path="url(#pf5a648d8ea)" style="fill: none; stroke: #cccccc; stroke-linecap: round"/>
     </g>
     <g id="line2d_14">
      <g>
       <use xlink:href="#m67f6b3b125" x="382.620705" y="228.96" style="fill: #262626; stroke: #262626; stroke-width: 1.25"/>
      </g>
     </g>
     <g id="text_7">
      <!-- 18 -->
      <g style="fill: #262626" transform="translate(375.621955 246.818281) scale(0.11 -0.11)">
       <use xlink:href="#DejaVuSans-31"/>
       <use xlink:href="#DejaVuSans-38" x="63.623047"/>
      </g>
     </g>
    </g>
    <g id="xtick_8">
     <g id="line2d_15">
      <path d="M 421.660812 228.96 
L 421.660812 7.2 
" clip-path="url(#pf5a648d8ea)" style="fill: none; stroke: #cccccc; stroke-linecap: round"/>
     </g>
     <g id="line2d_16">
      <g>
       <use xlink:href="#m67f6b3b125" x="421.660812" y="228.96" style="fill: #262626; stroke: #262626; stroke-width: 1.25"/>
      </g>
     </g>
     <g id="text_8">
      <!-- 20 -->
      <g style="fill: #262626" transform="translate(414.662062 246.818281) scale(0.11 -0.11)">
       <use xlink:href="#DejaVuSans-32"/>
       <use xlink:href="#DejaVuSans-30" x="63.623047"/>
      </g>
     </g>
    </g>
    <g id="text_9">
     <!-- MAE -->
     <g style="fill: #262626" transform="translate(273.392812 262.224063) scale(0.12 -0.12)">
      <defs>
       <path id="DejaVuSans-4d" d="M 628 4666 
L 1569 4666 
L 2759 1491 
L 3956 4666 
L 4897 4666 
L 4897 0 
L 4281 0 
L 4281 4097 
L 3078 897 
L 2444 897 
L 1241 4097 
L 1241 0 
L 628 0 
L 628 4666 
z
" transform="scale(0.015625)"/>
       <path id="DejaVuSans-41" d="M 2188 4044 
L 1331 1722 
L 3047 1722 
L 2188 4044 
z
M 1831 4666 
L 2547 4666 
L 4325 0 
L 3669 0 
L 3244 1197 
L 1141 1197 
L 716 0 
L 50 0 
L 1831 4666 
z
" transform="scale(0.015625)"/>
       <path id="DejaVuSans-45" d="M 628 4666 
L 3578 4666 
L 3578 4134 
L 1259 4134 
L 1259 2753 
L 3481 2753 
L 3481 2222 
L 1259 2222 
L 1259 531 
L 3634 531 
L 3634 0 
L 628 0 
L 628 4666 
z
" transform="scale(0.015625)"/>
      </defs>
      <use xlink:href="#DejaVuSans-4d"/>
      <use xlink:href="#DejaVuSans-41" x="86.279297"/>
      <use xlink:href="#DejaVuSans-45" x="154.6875"/>
     </g>
    </g>
   </g>
   <g id="matplotlib.axis_2">
    <g id="ytick_1">
     <g id="line2d_17">
      <defs>
       <path id="m871c5dd06e" d="M 0 0 
L -6 0 
" style="stroke: #262626; stroke-width: 1.25"/>
      </defs>
      <g>
       <use xlink:href="#m871c5dd06e" x="119.065313" y="25.68" style="fill: #262626; stroke: #262626; stroke-width: 1.25"/>
      </g>
     </g>
     <g id="text_10">
      <!-- deep -->
      <g style="fill: #262626" transform="translate(82.061875 29.859141) scale(0.11 -0.11)">
       <defs>
        <path id="DejaVuSans-64" d="M 2906 2969 
L 2906 4863 
L 3481 4863 
L 3481 0 
L 2906 0 
L 2906 525 
Q 2725 213 2448 61 
Q 2172 -91 1784 -91 
Q 1150 -91 751 415 
Q 353 922 353 1747 
Q 353 2572 751 3078 
Q 1150 3584 1784 3584 
Q 2172 3584 2448 3432 
Q 2725 3281 2906 2969 
z
M 947 1747 
Q 947 1113 1208 752 
Q 1469 391 1925 391 
Q 2381 391 2643 752 
Q 2906 1113 2906 1747 
Q 2906 2381 2643 2742 
Q 2381 3103 1925 3103 
Q 1469 3103 1208 2742 
Q 947 2381 947 1747 
z
" transform="scale(0.015625)"/>
        <path id="DejaVuSans-65" d="M 3597 1894 
L 3597 1613 
L 953 1613 
Q 991 1019 1311 708 
Q 1631 397 2203 397 
Q 2534 397 2845 478 
Q 3156 559 3463 722 
L 3463 178 
Q 3153 47 2828 -22 
Q 2503 -91 2169 -91 
Q 1331 -91 842 396 
Q 353 884 353 1716 
Q 353 2575 817 3079 
Q 1281 3584 2069 3584 
Q 2775 3584 3186 3129 
Q 3597 2675 3597 1894 
z
M 3022 2063 
Q 3016 2534 2758 2815 
Q 2500 3097 2075 3097 
Q 1594 3097 1305 2825 
Q 1016 2553 972 2059 
L 3022 2063 
z
" transform="scale(0.015625)"/>
        <path id="DejaVuSans-70" d="M 1159 525 
L 1159 -1331 
L 581 -1331 
L 581 3500 
L 1159 3500 
L 1159 2969 
Q 1341 3281 1617 3432 
Q 1894 3584 2278 3584 
Q 2916 3584 3314 3078 
Q 3713 2572 3713 1747 
Q 3713 922 3314 415 
Q 2916 -91 2278 -91 
Q 1894 -91 1617 61 
Q 1341 213 1159 525 
z
M 3116 1747 
Q 3116 2381 2855 2742 
Q 2594 3103 2138 3103 
Q 1681 3103 1420 2742 
Q 1159 2381 1159 1747 
Q 1159 1113 1420 752 
Q 1681 391 2138 391 
Q 2594 391 2855 752 
Q 3116 1113 3116 1747 
z
" transform="scale(0.015625)"/>
       </defs>
       <use xlink:href="#DejaVuSans-64"/>
       <use xlink:href="#DejaVuSans-65" x="63.476562"/>
       <use xlink:href="#DejaVuSans-65" x="125"/>
       <use xlink:href="#DejaVuSans-70" x="186.523438"/>
      </g>
     </g>
    </g>
    <g id="ytick_2">
     <g id="line2d_18">
      <g>
       <use xlink:href="#m871c5dd06e" x="119.065313" y="62.64" style="fill: #262626; stroke: #262626; stroke-width: 1.25"/>
      </g>
     </g>
     <g id="text_11">
      <!-- dummy -->
      <g style="fill: #262626" transform="translate(67.670781 66.819141) scale(0.11 -0.11)">
       <defs>
        <path id="DejaVuSans-75" d="M 544 1381 
L 544 3500 
L 1119 3500 
L 1119 1403 
Q 1119 906 1312 657 
Q 1506 409 1894 409 
Q 2359 409 2629 706 
Q 2900 1003 2900 1516 
L 2900 3500 
L 3475 3500 
L 3475 0 
L 2900 0 
L 2900 538 
Q 2691 219 2414 64 
Q 2138 -91 1772 -91 
Q 1169 -91 856 284 
Q 544 659 544 1381 
z
M 1991 3584 
L 1991 3584 
z
" transform="scale(0.015625)"/>
        <path id="DejaVuSans-6d" d="M 3328 2828 
Q 3544 3216 3844 3400 
Q 4144 3584 4550 3584 
Q 5097 3584 5394 3201 
Q 5691 2819 5691 2113 
L 5691 0 
L 5113 0 
L 5113 2094 
Q 5113 2597 4934 2840 
Q 4756 3084 4391 3084 
Q 3944 3084 3684 2787 
Q 3425 2491 3425 1978 
L 3425 0 
L 2847 0 
L 2847 2094 
Q 2847 2600 2669 2842 
Q 2491 3084 2119 3084 
Q 1678 3084 1418 2786 
Q 1159 2488 1159 1978 
L 1159 0 
L 581 0 
L 581 3500 
L 1159 3500 
L 1159 2956 
Q 1356 3278 1631 3431 
Q 1906 3584 2284 3584 
Q 2666 3584 2933 3390 
Q 3200 3197 3328 2828 
z
" transform="scale(0.015625)"/>
        <path id="DejaVuSans-79" d="M 2059 -325 
Q 1816 -950 1584 -1140 
Q 1353 -1331 966 -1331 
L 506 -1331 
L 506 -850 
L 844 -850 
Q 1081 -850 1212 -737 
Q 1344 -625 1503 -206 
L 1606 56 
L 191 3500 
L 800 3500 
L 1894 763 
L 2988 3500 
L 3597 3500 
L 2059 -325 
z
" transform="scale(0.015625)"/>
       </defs>
       <use xlink:href="#DejaVuSans-64"/>
       <use xlink:href="#DejaVuSans-75" x="63.476562"/>
       <use xlink:href="#DejaVuSans-6d" x="126.855469"/>
       <use xlink:href="#DejaVuSans-6d" x="224.267578"/>
       <use xlink:href="#DejaVuSans-79" x="321.679688"/>
      </g>
     </g>
    </g>
    <g id="ytick_3">
     <g id="line2d_19">
      <g>
       <use xlink:href="#m871c5dd06e" x="119.065313" y="99.6" style="fill: #262626; stroke: #262626; stroke-width: 1.25"/>
      </g>
     </g>
     <g id="text_12">
      <!-- filterbank-riemann -->
      <g style="fill: #262626" transform="translate(7.2 103.779141) scale(0.11 -0.11)">
       <defs>
        <path id="DejaVuSans-66" d="M 2375 4863 
L 2375 4384 
L 1825 4384 
Q 1516 4384 1395 4259 
Q 1275 4134 1275 3809 
L 1275 3500 
L 2222 3500 
L 2222 3053 
L 1275 3053 
L 1275 0 
L 697 0 
L 697 3053 
L 147 3053 
L 147 3500 
L 697 3500 
L 697 3744 
Q 697 4328 969 4595 
Q 1241 4863 1831 4863 
L 2375 4863 
z
" transform="scale(0.015625)"/>
        <path id="DejaVuSans-69" d="M 603 3500 
L 1178 3500 
L 1178 0 
L 603 0 
L 603 3500 
z
M 603 4863 
L 1178 4863 
L 1178 4134 
L 603 4134 
L 603 4863 
z
" transform="scale(0.015625)"/>
        <path id="DejaVuSans-6c" d="M 603 4863 
L 1178 4863 
L 1178 0 
L 603 0 
L 603 4863 
z
" transform="scale(0.015625)"/>
        <path id="DejaVuSans-74" d="M 1172 4494 
L 1172 3500 
L 2356 3500 
L 2356 3053 
L 1172 3053 
L 1172 1153 
Q 1172 725 1289 603 
Q 1406 481 1766 481 
L 2356 481 
L 2356 0 
L 1766 0 
Q 1100 0 847 248 
Q 594 497 594 1153 
L 594 3053 
L 172 3053 
L 172 3500 
L 594 3500 
L 594 4494 
L 1172 4494 
z
" transform="scale(0.015625)"/>
        <path id="DejaVuSans-72" d="M 2631 2963 
Q 2534 3019 2420 3045 
Q 2306 3072 2169 3072 
Q 1681 3072 1420 2755 
Q 1159 2438 1159 1844 
L 1159 0 
L 581 0 
L 581 3500 
L 1159 3500 
L 1159 2956 
Q 1341 3275 1631 3429 
Q 1922 3584 2338 3584 
Q 2397 3584 2469 3576 
Q 2541 3569 2628 3553 
L 2631 2963 
z
" transform="scale(0.015625)"/>
        <path id="DejaVuSans-62" d="M 3116 1747 
Q 3116 2381 2855 2742 
Q 2594 3103 2138 3103 
Q 1681 3103 1420 2742 
Q 1159 2381 1159 1747 
Q 1159 1113 1420 752 
Q 1681 391 2138 391 
Q 2594 391 2855 752 
Q 3116 1113 3116 1747 
z
M 1159 2969 
Q 1341 3281 1617 3432 
Q 1894 3584 2278 3584 
Q 2916 3584 3314 3078 
Q 3713 2572 3713 1747 
Q 3713 922 3314 415 
Q 2916 -91 2278 -91 
Q 1894 -91 1617 61 
Q 1341 213 1159 525 
L 1159 0 
L 581 0 
L 581 4863 
L 1159 4863 
L 1159 2969 
z
" transform="scale(0.015625)"/>
        <path id="DejaVuSans-61" d="M 2194 1759 
Q 1497 1759 1228 1600 
Q 959 1441 959 1056 
Q 959 750 1161 570 
Q 1363 391 1709 391 
Q 2188 391 2477 730 
Q 2766 1069 2766 1631 
L 2766 1759 
L 2194 1759 
z
M 3341 1997 
L 3341 0 
L 2766 0 
L 2766 531 
Q 2569 213 2275 61 
Q 1981 -91 1556 -91 
Q 1019 -91 701 211 
Q 384 513 384 1019 
Q 384 1609 779 1909 
Q 1175 2209 1959 2209 
L 2766 2209 
L 2766 2266 
Q 2766 2663 2505 2880 
Q 2244 3097 1772 3097 
Q 1472 3097 1187 3025 
Q 903 2953 641 2809 
L 641 3341 
Q 956 3463 1253 3523 
Q 1550 3584 1831 3584 
Q 2591 3584 2966 3190 
Q 3341 2797 3341 1997 
z
" transform="scale(0.015625)"/>
        <path id="DejaVuSans-6e" d="M 3513 2113 
L 3513 0 
L 2938 0 
L 2938 2094 
Q 2938 2591 2744 2837 
Q 2550 3084 2163 3084 
Q 1697 3084 1428 2787 
Q 1159 2491 1159 1978 
L 1159 0 
L 581 0 
L 581 3500 
L 1159 3500 
L 1159 2956 
Q 1366 3272 1645 3428 
Q 1925 3584 2291 3584 
Q 2894 3584 3203 3211 
Q 3513 2838 3513 2113 
z
" transform="scale(0.015625)"/>
        <path id="DejaVuSans-6b" d="M 581 4863 
L 1159 4863 
L 1159 1991 
L 2875 3500 
L 3609 3500 
L 1753 1863 
L 3688 0 
L 2938 0 
L 1159 1709 
L 1159 0 
L 581 0 
L 581 4863 
z
" transform="scale(0.015625)"/>
        <path id="DejaVuSans-2d" d="M 313 2009 
L 1997 2009 
L 1997 1497 
L 313 1497 
L 313 2009 
z
" transform="scale(0.015625)"/>
       </defs>
       <use xlink:href="#DejaVuSans-66"/>
       <use xlink:href="#DejaVuSans-69" x="35.205078"/>
       <use xlink:href="#DejaVuSans-6c" x="62.988281"/>
       <use xlink:href="#DejaVuSans-74" x="90.771484"/>
       <use xlink:href="#DejaVuSans-65" x="129.980469"/>
       <use xlink:href="#DejaVuSans-72" x="191.503906"/>
       <use xlink:href="#DejaVuSans-62" x="232.617188"/>
       <use xlink:href="#DejaVuSans-61" x="296.09375"/>
       <use xlink:href="#DejaVuSans-6e" x="357.373047"/>
       <use xlink:href="#DejaVuSans-6b" x="420.751953"/>
       <use xlink:href="#DejaVuSans-2d" x="478.662109"/>
       <use xlink:href="#DejaVuSans-72" x="514.746094"/>
       <use xlink:href="#DejaVuSans-69" x="555.859375"/>
       <use xlink:href="#DejaVuSans-65" x="583.642578"/>
       <use xlink:href="#DejaVuSans-6d" x="645.166016"/>
       <use xlink:href="#DejaVuSans-61" x="742.578125"/>
       <use xlink:href="#DejaVuSans-6e" x="803.857422"/>
       <use xlink:href="#DejaVuSans-6e" x="867.236328"/>
      </g>
     </g>
    </g>
    <g id="ytick_4">
     <g id="line2d_20">
      <g>
       <use xlink:href="#m871c5dd06e" x="119.065313" y="136.56" style="fill: #262626; stroke: #262626; stroke-width: 1.25"/>
      </g>
     </g>
     <g id="text_13">
      <!-- filterbank-source -->
      <g style="fill: #262626" transform="translate(16.421094 140.739141) scale(0.11 -0.11)">
       <defs>
        <path id="DejaVuSans-73" d="M 2834 3397 
L 2834 2853 
Q 2591 2978 2328 3040 
Q 2066 3103 1784 3103 
Q 1356 3103 1142 2972 
Q 928 2841 928 2578 
Q 928 2378 1081 2264 
Q 1234 2150 1697 2047 
L 1894 2003 
Q 2506 1872 2764 1633 
Q 3022 1394 3022 966 
Q 3022 478 2636 193 
Q 2250 -91 1575 -91 
Q 1294 -91 989 -36 
Q 684 19 347 128 
L 347 722 
Q 666 556 975 473 
Q 1284 391 1588 391 
Q 1994 391 2212 530 
Q 2431 669 2431 922 
Q 2431 1156 2273 1281 
Q 2116 1406 1581 1522 
L 1381 1569 
Q 847 1681 609 1914 
Q 372 2147 372 2553 
Q 372 3047 722 3315 
Q 1072 3584 1716 3584 
Q 2034 3584 2315 3537 
Q 2597 3491 2834 3397 
z
" transform="scale(0.015625)"/>
        <path id="DejaVuSans-6f" d="M 1959 3097 
Q 1497 3097 1228 2736 
Q 959 2375 959 1747 
Q 959 1119 1226 758 
Q 1494 397 1959 397 
Q 2419 397 2687 759 
Q 2956 1122 2956 1747 
Q 2956 2369 2687 2733 
Q 2419 3097 1959 3097 
z
M 1959 3584 
Q 2709 3584 3137 3096 
Q 3566 2609 3566 1747 
Q 3566 888 3137 398 
Q 2709 -91 1959 -91 
Q 1206 -91 779 398 
Q 353 888 353 1747 
Q 353 2609 779 3096 
Q 1206 3584 1959 3584 
z
" transform="scale(0.015625)"/>
        <path id="DejaVuSans-63" d="M 3122 3366 
L 3122 2828 
Q 2878 2963 2633 3030 
Q 2388 3097 2138 3097 
Q 1578 3097 1268 2742 
Q 959 2388 959 1747 
Q 959 1106 1268 751 
Q 1578 397 2138 397 
Q 2388 397 2633 464 
Q 2878 531 3122 666 
L 3122 134 
Q 2881 22 2623 -34 
Q 2366 -91 2075 -91 
Q 1284 -91 818 406 
Q 353 903 353 1747 
Q 353 2603 823 3093 
Q 1294 3584 2113 3584 
Q 2378 3584 2631 3529 
Q 2884 3475 3122 3366 
z
" transform="scale(0.015625)"/>
       </defs>
       <use xlink:href="#DejaVuSans-66"/>
       <use xlink:href="#DejaVuSans-69" x="35.205078"/>
       <use xlink:href="#DejaVuSans-6c" x="62.988281"/>
       <use xlink:href="#DejaVuSans-74" x="90.771484"/>
       <use xlink:href="#DejaVuSans-65" x="129.980469"/>
       <use xlink:href="#DejaVuSans-72" x="191.503906"/>
       <use xlink:href="#DejaVuSans-62" x="232.617188"/>
       <use xlink:href="#DejaVuSans-61" x="296.09375"/>
       <use xlink:href="#DejaVuSans-6e" x="357.373047"/>
       <use xlink:href="#DejaVuSans-6b" x="420.751953"/>
       <use xlink:href="#DejaVuSans-2d" x="478.662109"/>
       <use xlink:href="#DejaVuSans-73" x="514.746094"/>
       <use xlink:href="#DejaVuSans-6f" x="566.845703"/>
       <use xlink:href="#DejaVuSans-75" x="628.027344"/>
       <use xlink:href="#DejaVuSans-72" x="691.40625"/>
       <use xlink:href="#DejaVuSans-63" x="730.269531"/>
       <use xlink:href="#DejaVuSans-65" x="785.25"/>
      </g>
     </g>
    </g>
    <g id="ytick_5">
     <g id="line2d_21">
      <g>
       <use xlink:href="#m871c5dd06e" x="119.065313" y="173.52" style="fill: #262626; stroke: #262626; stroke-width: 1.25"/>
      </g>
     </g>
     <g id="text_14">
      <!-- handcrafted -->
      <g style="fill: #262626" transform="translate(42.843438 177.699141) scale(0.11 -0.11)">
       <defs>
        <path id="DejaVuSans-68" d="M 3513 2113 
L 3513 0 
L 2938 0 
L 2938 2094 
Q 2938 2591 2744 2837 
Q 2550 3084 2163 3084 
Q 1697 3084 1428 2787 
Q 1159 2491 1159 1978 
L 1159 0 
L 581 0 
L 581 4863 
L 1159 4863 
L 1159 2956 
Q 1366 3272 1645 3428 
Q 1925 3584 2291 3584 
Q 2894 3584 3203 3211 
Q 3513 2838 3513 2113 
z
" transform="scale(0.015625)"/>
       </defs>
       <use xlink:href="#DejaVuSans-68"/>
       <use xlink:href="#DejaVuSans-61" x="63.378906"/>
       <use xlink:href="#DejaVuSans-6e" x="124.658203"/>
       <use xlink:href="#DejaVuSans-64" x="188.037109"/>
       <use xlink:href="#DejaVuSans-63" x="251.513672"/>
       <use xlink:href="#DejaVuSans-72" x="306.494141"/>
       <use xlink:href="#DejaVuSans-61" x="347.607422"/>
       <use xlink:href="#DejaVuSans-66" x="408.886719"/>
       <use xlink:href="#DejaVuSans-74" x="442.341797"/>
       <use xlink:href="#DejaVuSans-65" x="481.550781"/>
       <use xlink:href="#DejaVuSans-64" x="543.074219"/>
      </g>
     </g>
    </g>
    <g id="ytick_6">
     <g id="line2d_22">
      <g>
       <use xlink:href="#m871c5dd06e" x="119.065313" y="210.48" style="fill: #262626; stroke: #262626; stroke-width: 1.25"/>
      </g>
     </g>
     <g id="text_15">
      <!-- shallow -->
      <g style="fill: #262626" transform="translate(68.284375 214.659141) scale(0.11 -0.11)">
       <defs>
        <path id="DejaVuSans-77" d="M 269 3500 
L 844 3500 
L 1563 769 
L 2278 3500 
L 2956 3500 
L 3675 769 
L 4391 3500 
L 4966 3500 
L 4050 0 
L 3372 0 
L 2619 2869 
L 1863 0 
L 1184 0 
L 269 3500 
z
" transform="scale(0.015625)"/>
       </defs>
       <use xlink:href="#DejaVuSans-73"/>
       <use xlink:href="#DejaVuSans-68" x="52.099609"/>
       <use xlink:href="#DejaVuSans-61" x="115.478516"/>
       <use xlink:href="#DejaVuSans-6c" x="176.757812"/>
       <use xlink:href="#DejaVuSans-6c" x="204.541016"/>
       <use xlink:href="#DejaVuSans-6f" x="232.324219"/>
       <use xlink:href="#DejaVuSans-77" x="293.505859"/>
      </g>
     </g>
    </g>
   </g>
   <g id="patch_3">
    <path d="M 164.765726 14.592 
L 164.765726 36.768 
L 199.186365 36.768 
L 199.186365 14.592 
L 164.765726 14.592 
z
" clip-path="url(#pf5a648d8ea)" style="fill: #7891b5; stroke: #5a5a5a; stroke-width: 1.5; stroke-linejoin: miter"/>
   </g>
   <g id="patch_4">
    <path d="M 373.898891 51.552 
L 373.898891 73.728 
L 423.983401 73.728 
L 423.983401 51.552 
L 373.898891 51.552 
z
" clip-path="url(#pf5a648d8ea)" style="fill: #aeb9cb; stroke: #5a5a5a; stroke-width: 1.5; stroke-linejoin: miter"/>
   </g>
   <g id="patch_5">
    <path d="M 209.906545 88.512 
L 209.906545 110.688 
L 262.749062 110.688 
L 262.749062 88.512 
L 209.906545 88.512 
z
" clip-path="url(#pf5a648d8ea)" style="fill: #e5e5ea; stroke: #5a5a5a; stroke-width: 1.5; stroke-linejoin: miter"/>
   </g>
   <g id="patch_6">
    <path d="M 189.224958 125.472 
L 189.224958 147.648 
L 212.202592 147.648 
L 212.202592 125.472 
L 189.224958 125.472 
z
" clip-path="url(#pf5a648d8ea)" style="fill: #efe1e0; stroke: #5a5a5a; stroke-width: 1.5; stroke-linejoin: miter"/>
   </g>
   <g id="patch_7">
    <path d="M 224.969145 162.432 
L 224.969145 184.608 
L 246.705488 184.608 
L 246.705488 162.432 
L 224.969145 162.432 
z
" clip-path="url(#pf5a648d8ea)" style="fill: #d2acaa; stroke: #5a5a5a; stroke-width: 1.5; stroke-linejoin: miter"/>
   </g>
   <g id="patch_8">
    <path d="M 176.916072 199.392 
L 176.916072 221.568 
L 213.195389 221.568 
L 213.195389 199.392 
L 176.916072 199.392 
z
" clip-path="url(#pf5a648d8ea)" style="fill: #b77977; stroke: #5a5a5a; stroke-width: 1.5; stroke-linejoin: miter"/>
   </g>
   <g id="line2d_23">
    <path d="M 164.765726 25.68 
L 134.283494 25.68 
" clip-path="url(#pf5a648d8ea)" style="fill: none; stroke: #5a5a5a; stroke-width: 1.5; stroke-linecap: round"/>
   </g>
   <g id="line2d_24">
    <path d="M 199.186365 25.68 
L 242.2469 25.68 
" clip-path="url(#pf5a648d8ea)" style="fill: none; stroke: #5a5a5a; stroke-width: 1.5; stroke-linecap: round"/>
   </g>
   <g id="line2d_25">
    <path d="M 134.283494 20.136 
L 134.283494 31.224 
" clip-path="url(#pf5a648d8ea)" style="fill: none; stroke: #5a5a5a; stroke-width: 1.5; stroke-linecap: round"/>
   </g>
   <g id="line2d_26">
    <path d="M 242.2469 20.136 
L 242.2469 31.224 
" clip-path="url(#pf5a648d8ea)" style="fill: none; stroke: #5a5a5a; stroke-width: 1.5; stroke-linecap: round"/>
   </g>
   <g id="line2d_27"/>
   <g id="line2d_28">
    <path d="M 373.898891 62.64 
L 347.894126 62.64 
" clip-path="url(#pf5a648d8ea)" style="fill: none; stroke: #5a5a5a; stroke-width: 1.5; stroke-linecap: round"/>
   </g>
   <g id="line2d_29">
    <path d="M 423.983401 62.64 
L 438.647131 62.64 
" clip-path="url(#pf5a648d8ea)" style="fill: none; stroke: #5a5a5a; stroke-width: 1.5; stroke-linecap: round"/>
   </g>
   <g id="line2d_30">
    <path d="M 347.894126 57.096 
L 347.894126 68.184 
" clip-path="url(#pf5a648d8ea)" style="fill: none; stroke: #5a5a5a; stroke-width: 1.5; stroke-linecap: round"/>
   </g>
   <g id="line2d_31">
    <path d="M 438.647131 57.096 
L 438.647131 68.184 
" clip-path="url(#pf5a648d8ea)" style="fill: none; stroke: #5a5a5a; stroke-width: 1.5; stroke-linecap: round"/>
   </g>
   <g id="line2d_32"/>
   <g id="line2d_33">
    <path d="M 209.906545 99.6 
L 188.873679 99.6 
" clip-path="url(#pf5a648d8ea)" style="fill: none; stroke: #5a5a5a; stroke-width: 1.5; stroke-linecap: round"/>
   </g>
   <g id="line2d_34">
    <path d="M 262.749062 99.6 
L 294.277027 99.6 
" clip-path="url(#pf5a648d8ea)" style="fill: none; stroke: #5a5a5a; stroke-width: 1.5; stroke-linecap: round"/>
   </g>
   <g id="line2d_35">
    <path d="M 188.873679 94.056 
L 188.873679 105.144 
" clip-path="url(#pf5a648d8ea)" style="fill: none; stroke: #5a5a5a; stroke-width: 1.5; stroke-linecap: round"/>
   </g>
   <g id="line2d_36">
    <path d="M 294.277027 94.056 
L 294.277027 105.144 
" clip-path="url(#pf5a648d8ea)" style="fill: none; stroke: #5a5a5a; stroke-width: 1.5; stroke-linecap: round"/>
   </g>
   <g id="line2d_37"/>
   <g id="line2d_38">
    <path d="M 189.224958 136.56 
L 167.343436 136.56 
" clip-path="url(#pf5a648d8ea)" style="fill: none; stroke: #5a5a5a; stroke-width: 1.5; stroke-linecap: round"/>
   </g>
   <g id="line2d_39">
    <path d="M 212.202592 136.56 
L 228.76972 136.56 
" clip-path="url(#pf5a648d8ea)" style="fill: none; stroke: #5a5a5a; stroke-width: 1.5; stroke-linecap: round"/>
   </g>
   <g id="line2d_40">
    <path d="M 167.343436 131.016 
L 167.343436 142.104 
" clip-path="url(#pf5a648d8ea)" style="fill: none; stroke: #5a5a5a; stroke-width: 1.5; stroke-linecap: round"/>
   </g>
   <g id="line2d_41">
    <path d="M 228.76972 131.016 
L 228.76972 142.104 
" clip-path="url(#pf5a648d8ea)" style="fill: none; stroke: #5a5a5a; stroke-width: 1.5; stroke-linecap: round"/>
   </g>
   <g id="line2d_42"/>
   <g id="line2d_43">
    <path d="M 224.969145 173.52 
L 160.655505 173.52 
" clip-path="url(#pf5a648d8ea)" style="fill: none; stroke: #5a5a5a; stroke-width: 1.5; stroke-linecap: round"/>
   </g>
   <g id="line2d_44">
    <path d="M 246.705488 173.52 
L 285.849837 173.52 
" clip-path="url(#pf5a648d8ea)" style="fill: none; stroke: #5a5a5a; stroke-width: 1.5; stroke-linecap: round"/>
   </g>
   <g id="line2d_45">
    <path d="M 160.655505 167.976 
L 160.655505 179.064 
" clip-path="url(#pf5a648d8ea)" style="fill: none; stroke: #5a5a5a; stroke-width: 1.5; stroke-linecap: round"/>
   </g>
   <g id="line2d_46">
    <path d="M 285.849837 167.976 
L 285.849837 179.064 
" clip-path="url(#pf5a648d8ea)" style="fill: none; stroke: #5a5a5a; stroke-width: 1.5; stroke-linecap: round"/>
   </g>
   <g id="line2d_47"/>
   <g id="line2d_48">
    <path d="M 176.916072 210.48 
L 149.475098 210.48 
" clip-path="url(#pf5a648d8ea)" style="fill: none; stroke: #5a5a5a; stroke-width: 1.5; stroke-linecap: round"/>
   </g>
   <g id="line2d_49">
    <path d="M 213.195389 210.48 
L 280.380607 210.48 
" clip-path="url(#pf5a648d8ea)" style="fill: none; stroke: #5a5a5a; stroke-width: 1.5; stroke-linecap: round"/>
   </g>
   <g id="line2d_50">
    <path d="M 149.475098 204.936 
L 149.475098 216.024 
" clip-path="url(#pf5a648d8ea)" style="fill: none; stroke: #5a5a5a; stroke-width: 1.5; stroke-linecap: round"/>
   </g>
   <g id="line2d_51">
    <path d="M 280.380607 204.936 
L 280.380607 216.024 
" clip-path="url(#pf5a648d8ea)" style="fill: none; stroke: #5a5a5a; stroke-width: 1.5; stroke-linecap: round"/>
   </g>
   <g id="line2d_52"/>
   <g id="line2d_53">
    <path d="M 177.038299 14.592 
L 177.038299 36.768 
" clip-path="url(#pf5a648d8ea)" style="fill: none; stroke: #5a5a5a; stroke-width: 1.5; stroke-linecap: round"/>
   </g>
   <g id="line2d_54">
    <path d="M 395.212346 51.552 
L 395.212346 73.728 
" clip-path="url(#pf5a648d8ea)" style="fill: none; stroke: #5a5a5a; stroke-width: 1.5; stroke-linecap: round"/>
   </g>
   <g id="line2d_55">
    <path d="M 251.084028 88.512 
L 251.084028 110.688 
" clip-path="url(#pf5a648d8ea)" style="fill: none; stroke: #5a5a5a; stroke-width: 1.5; stroke-linecap: round"/>
   </g>
   <g id="line2d_56">
    <path d="M 205.217375 125.472 
L 205.217375 147.648 
" clip-path="url(#pf5a648d8ea)" style="fill: none; stroke: #5a5a5a; stroke-width: 1.5; stroke-linecap: round"/>
   </g>
   <g id="line2d_57">
    <path d="M 238.177653 162.432 
L 238.177653 184.608 
" clip-path="url(#pf5a648d8ea)" style="fill: none; stroke: #5a5a5a; stroke-width: 1.5; stroke-linecap: round"/>
   </g>
   <g id="line2d_58">
    <path d="M 204.578538 199.392 
L 204.578538 221.568 
" clip-path="url(#pf5a648d8ea)" style="fill: none; stroke: #5a5a5a; stroke-width: 1.5; stroke-linecap: round"/>
   </g>
   <g id="patch_9">
    <path d="M 148.380064 228.96 
L 421.660812 228.96 
" style="fill: none; stroke: #262626; stroke-width: 1.25; stroke-linejoin: miter; stroke-linecap: square"/>
   </g>
   <g id="PathCollection_1">
    <defs>
     <path id="mf401214683" d="M 0 2 
C 0.530406 2 1.03916 1.789267 1.414214 1.414214 
C 1.789267 1.03916 2 0.530406 2 0 
C 2 -0.530406 1.789267 -1.03916 1.414214 -1.414214 
C 1.03916 -1.789267 0.530406 -2 0 -2 
C -0.530406 -2 -1.03916 -1.789267 -1.414214 -1.414214 
C -1.789267 -1.03916 -2 -0.530406 -2 0 
C -2 0.530406 -1.789267 1.03916 -1.414214 1.414214 
C -1.03916 1.789267 -0.530406 2 0 2 
z
"/>
    </defs>
    <g clip-path="url(#pf5a648d8ea)">
     <use xlink:href="#mf401214683" x="199.545233" y="22.230268" style="fill: #4c4c4c"/>
     <use xlink:href="#mf401214683" x="173.160898" y="22.824586" style="fill: #4c4c4c"/>
     <use xlink:href="#mf401214683" x="138.990934" y="28.455965" style="fill: #4c4c4c"/>
     <use xlink:href="#mf401214683" x="225.792161" y="22.648619" style="fill: #4c4c4c"/>
     <use xlink:href="#mf401214683" x="162.91526" y="28.659073" style="fill: #4c4c4c"/>
     <use xlink:href="#mf401214683" x="198.109763" y="24.05993" style="fill: #4c4c4c"/>
     <use xlink:href="#mf401214683" x="242.2469" y="24.468633" style="fill: #4c4c4c"/>
     <use xlink:href="#mf401214683" x="180.9157" y="22.591254" style="fill: #4c4c4c"/>
     <use xlink:href="#mf401214683" x="134.283494" y="23.06261" style="fill: #4c4c4c"/>
     <use xlink:href="#mf401214683" x="170.317125" y="25.069277" style="fill: #4c4c4c"/>
    </g>
   </g>
   <g id="PathCollection_2">
    <g clip-path="url(#pf5a648d8ea)">
     <use xlink:href="#mf401214683" x="347.894126" y="61.794066" style="fill: #4c4c4c"/>
     <use xlink:href="#mf401214683" x="424.285183" y="64.720578" style="fill: #4c4c4c"/>
     <use xlink:href="#mf401214683" x="373.050193" y="61.352367" style="fill: #4c4c4c"/>
     <use xlink:href="#mf401214683" x="427.342144" y="65.15352" style="fill: #4c4c4c"/>
     <use xlink:href="#mf401214683" x="401.374458" y="61.047683" style="fill: #4c4c4c"/>
     <use xlink:href="#mf401214683" x="362.120117" y="65.265035" style="fill: #4c4c4c"/>
     <use xlink:href="#mf401214683" x="438.647131" y="64.730183" style="fill: #4c4c4c"/>
     <use xlink:href="#mf401214683" x="376.444985" y="63.079973" style="fill: #4c4c4c"/>
     <use xlink:href="#mf401214683" x="423.078055" y="60.880869" style="fill: #4c4c4c"/>
     <use xlink:href="#mf401214683" x="389.050235" y="60.707397" style="fill: #4c4c4c"/>
    </g>
   </g>
   <g id="PathCollection_3">
    <g clip-path="url(#pf5a648d8ea)">
     <use xlink:href="#mf401214683" x="252.203316" y="97.897938" style="fill: #4c4c4c"/>
     <use xlink:href="#mf401214683" x="200.298045" y="101.812695" style="fill: #4c4c4c"/>
     <use xlink:href="#mf401214683" x="188.873679" y="101.775193" style="fill: #4c4c4c"/>
     <use xlink:href="#mf401214683" x="294.277027" y="98.176311" style="fill: #4c4c4c"/>
     <use xlink:href="#mf401214683" x="238.732044" y="99.114116" style="fill: #4c4c4c"/>
     <use xlink:href="#mf401214683" x="255.627862" y="99.920749" style="fill: #4c4c4c"/>
     <use xlink:href="#mf401214683" x="265.122795" y="99.912864" style="fill: #4c4c4c"/>
     <use xlink:href="#mf401214683" x="279.915225" y="102.923811" style="fill: #4c4c4c"/>
     <use xlink:href="#mf401214683" x="192.49381" y="98.798514" style="fill: #4c4c4c"/>
     <use xlink:href="#mf401214683" x="249.964741" y="102.289447" style="fill: #4c4c4c"/>
    </g>
   </g>
   <g id="PathCollection_4">
    <g clip-path="url(#pf5a648d8ea)">
     <use xlink:href="#mf401214683" x="222.287948" y="139.603005" style="fill: #4c4c4c"/>
     <use xlink:href="#mf401214683" x="212.023705" y="138.051067" style="fill: #4c4c4c"/>
     <use xlink:href="#mf401214683" x="186.959257" y="133.120903" style="fill: #4c4c4c"/>
     <use xlink:href="#mf401214683" x="228.76972" y="138.169522" style="fill: #4c4c4c"/>
     <use xlink:href="#mf401214683" x="211.177064" y="134.530196" style="fill: #4c4c4c"/>
     <use xlink:href="#mf401214683" x="196.022062" y="133.564499" style="fill: #4c4c4c"/>
     <use xlink:href="#mf401214683" x="199.257687" y="137.047127" style="fill: #4c4c4c"/>
     <use xlink:href="#mf401214683" x="169.573672" y="134.438551" style="fill: #4c4c4c"/>
     <use xlink:href="#mf401214683" x="167.343436" y="136.534977" style="fill: #4c4c4c"/>
     <use xlink:href="#mf401214683" x="212.262221" y="133.358537" style="fill: #4c4c4c"/>
    </g>
   </g>
   <g id="PathCollection_5">
    <g clip-path="url(#pf5a648d8ea)">
     <use xlink:href="#mf401214683" x="241.560941" y="172.069797" style="fill: #4c4c4c"/>
     <use xlink:href="#mf401214683" x="236.034822" y="174.035091" style="fill: #4c4c4c"/>
     <use xlink:href="#mf401214683" x="221.280586" y="173.721709" style="fill: #4c4c4c"/>
     <use xlink:href="#mf401214683" x="285.849837" y="172.38424" style="fill: #4c4c4c"/>
     <use xlink:href="#mf401214683" x="240.045767" y="176.703191" style="fill: #4c4c4c"/>
     <use xlink:href="#mf401214683" x="248.420337" y="173.637538" style="fill: #4c4c4c"/>
     <use xlink:href="#mf401214683" x="251.434858" y="172.889807" style="fill: #4c4c4c"/>
     <use xlink:href="#mf401214683" x="188.673179" y="172.118339" style="fill: #4c4c4c"/>
     <use xlink:href="#mf401214683" x="160.655505" y="172.021896" style="fill: #4c4c4c"/>
     <use xlink:href="#mf401214683" x="236.309539" y="173.521795" style="fill: #4c4c4c"/>
    </g>
   </g>
   <g id="PathCollection_6">
    <g clip-path="url(#pf5a648d8ea)">
     <use xlink:href="#mf401214683" x="212.342406" y="208.358789" style="fill: #4c4c4c"/>
     <use xlink:href="#mf401214683" x="170.224701" y="213.077104" style="fill: #4c4c4c"/>
     <use xlink:href="#mf401214683" x="149.475098" y="212.361079" style="fill: #4c4c4c"/>
     <use xlink:href="#mf401214683" x="280.380607" y="214.148461" style="fill: #4c4c4c"/>
     <use xlink:href="#mf401214683" x="213.479717" y="208.830648" style="fill: #4c4c4c"/>
     <use xlink:href="#mf401214683" x="199.201548" y="212.475996" style="fill: #4c4c4c"/>
     <use xlink:href="#mf401214683" x="209.955529" y="213.021845" style="fill: #4c4c4c"/>
     <use xlink:href="#mf401214683" x="213.857395" y="208.749894" style="fill: #4c4c4c"/>
     <use xlink:href="#mf401214683" x="158.373952" y="207.34092" style="fill: #4c4c4c"/>
     <use xlink:href="#mf401214683" x="196.990187" y="211.800035" style="fill: #4c4c4c"/>
    </g>
   </g>
  </g>
 </g>
 <defs>
  <clipPath id="pf5a648d8ea">
   <rect x="119.065313" y="7.2" width="334.8" height="221.76"/>
  </clipPath>
 </defs>
</svg>
