<?xml version="1.0" encoding="utf-8" standalone="no"?>
<!DOCTYPE svg PUBLIC "-//W3C//DTD SVG 1.1//EN"
  "http://www.w3.org/Graphics/SVG/1.1/DTD/svg11.dtd">
<svg xmlns:xlink="http://www.w3.org/1999/xlink" width="461.065312pt" height="271.919688pt" viewBox="0 0 461.065312 271.919688" xmlns="http://www.w3.org/2000/svg" version="1.1">
 <metadata>
  <rdf:RDF xmlns:dc="http://purl.org/dc/elements/1.1/" xmlns:cc="http://creativecommons.org/ns#" xmlns:rdf="http://www.w3.org/1999/02/22-rdf-syntax-ns#">
   <cc:Work>
    <dc:type rdf:resource="http://purl.org/dc/dcmitype/StillImage"/>
    <dc:date>2022-03-19T21:45:44.628620</dc:date>
    <dc:format>image/svg+xml</dc:format>
    <dc:creator>
     <cc:Agent>
      <dc:title>Matplotlib v3.5.1, https://matplotlib.org/</dc:title>
     </cc:Agent>
    </dc:creator>
   </cc:Work>
  </rdf:RDF>
 </metadata>
 <defs>
  <style type="text/css">*{stroke-linejoin: round; stroke-linecap: butt}</style>
 </defs>
 <g id="figure_1">
  <g id="patch_1">
   <path d="M 0 271.919688 
L 461.065312 271.919688 
L 461.065312 0 
L 0 0 
z
" style="fill: #ffffff"/>
  </g>
  <g id="axes_1">
   <g id="patch_2">
    <path d="M 119.065313 228.96 
L 453.865313 228.96 
L 453.865313 7.2 
L 119.065313 7.2 
z
" style="fill: #ffffff"/>
   </g>
   <g id="matplotlib.axis_1">
    <g id="xtick_1">
     <g id="line2d_1">
      <path d="M 153.652673 228.96 
L 153.652673 7.2 
" clip-path="url(#p130d80d797)" style="fill: none; stroke: #cccccc; stroke-linecap: round"/>
     </g>
     <g id="line2d_2">
      <defs>
       <path id="m9db3ecef95" d="M 0 0 
L 0 6 
" style="stroke: #262626; stroke-width: 1.25"/>
      </defs>
      <g>
       <use xlink:href="#m9db3ecef95" x="153.652673" y="228.96" style="fill: #262626; stroke: #262626; stroke-width: 1.25"/>
      </g>
     </g>
     <g id="text_1">
      <!-- 6 -->
      <g style="fill: #262626" transform="translate(150.153298 246.818281)scale(0.11 -0.11)">
       <defs>
        <path id="DejaVuSans-36" d="M 2113 2584 
Q 1688 2584 1439 2293 
Q 1191 2003 1191 1497 
Q 1191 994 1439 701 
Q 1688 409 2113 409 
Q 2538 409 2786 701 
Q 3034 994 3034 1497 
Q 3034 2003 2786 2293 
Q 2538 2584 2113 2584 
z
M 3366 4563 
L 3366 3988 
Q 3128 4100 2886 4159 
Q 2644 4219 2406 4219 
Q 1781 4219 1451 3797 
Q 1122 3375 1075 2522 
Q 1259 2794 1537 2939 
Q 1816 3084 2150 3084 
Q 2853 3084 3261 2657 
Q 3669 2231 3669 1497 
Q 3669 778 3244 343 
Q 2819 -91 2113 -91 
Q 1303 -91 875 529 
Q 447 1150 447 2328 
Q 447 3434 972 4092 
Q 1497 4750 2381 4750 
Q 2619 4750 2861 4703 
Q 3103 4656 3366 4563 
z
" transform="scale(0.015625)"/>
       </defs>
       <use xlink:href="#DejaVuSans-36"/>
      </g>
     </g>
    </g>
    <g id="xtick_2">
     <g id="line2d_3">
      <path d="M 191.983628 228.96 
L 191.983628 7.2 
" clip-path="url(#p130d80d797)" style="fill: none; stroke: #cccccc; stroke-linecap: round"/>
     </g>
     <g id="line2d_4">
      <g>
       <use xlink:href="#m9db3ecef95" x="191.983628" y="228.96" style="fill: #262626; stroke: #262626; stroke-width: 1.25"/>
      </g>
     </g>
     <g id="text_2">
      <!-- 8 -->
      <g style="fill: #262626" transform="translate(188.484253 246.818281)scale(0.11 -0.11)">
       <defs>
        <path id="DejaVuSans-38" d="M 2034 2216 
Q 1584 2216 1326 1975 
Q 1069 1734 1069 1313 
Q 1069 891 1326 650 
Q 1584 409 2034 409 
Q 2484 409 2743 651 
Q 3003 894 3003 1313 
Q 3003 1734 2745 1975 
Q 2488 2216 2034 2216 
z
M 1403 2484 
Q 997 2584 770 2862 
Q 544 3141 544 3541 
Q 544 4100 942 4425 
Q 1341 4750 2034 4750 
Q 2731 4750 3128 4425 
Q 3525 4100 3525 3541 
Q 3525 3141 3298 2862 
Q 3072 2584 2669 2484 
Q 3125 2378 3379 2068 
Q 3634 1759 3634 1313 
Q 3634 634 3220 271 
Q 2806 -91 2034 -91 
Q 1263 -91 848 271 
Q 434 634 434 1313 
Q 434 1759 690 2068 
Q 947 2378 1403 2484 
z
M 1172 3481 
Q 1172 3119 1398 2916 
Q 1625 2713 2034 2713 
Q 2441 2713 2670 2916 
Q 2900 3119 2900 3481 
Q 2900 3844 2670 4047 
Q 2441 4250 2034 4250 
Q 1625 4250 1398 4047 
Q 1172 3844 1172 3481 
z
" transform="scale(0.015625)"/>
       </defs>
       <use xlink:href="#DejaVuSans-38"/>
      </g>
     </g>
    </g>
    <g id="xtick_3">
     <g id="line2d_5">
      <path d="M 230.314584 228.96 
L 230.314584 7.2 
" clip-path="url(#p130d80d797)" style="fill: none; stroke: #cccccc; stroke-linecap: round"/>
     </g>
     <g id="line2d_6">
      <g>
       <use xlink:href="#m9db3ecef95" x="230.314584" y="228.96" style="fill: #262626; stroke: #262626; stroke-width: 1.25"/>
      </g>
     </g>
     <g id="text_3">
      <!-- 10 -->
      <g style="fill: #262626" transform="translate(223.315834 246.818281)scale(0.11 -0.11)">
       <defs>
        <path id="DejaVuSans-31" d="M 794 531 
L 1825 531 
L 1825 4091 
L 703 3866 
L 703 4441 
L 1819 4666 
L 2450 4666 
L 2450 531 
L 3481 531 
L 3481 0 
L 794 0 
L 794 531 
z
" transform="scale(0.015625)"/>
        <path id="DejaVuSans-30" d="M 2034 4250 
Q 1547 4250 1301 3770 
Q 1056 3291 1056 2328 
Q 1056 1369 1301 889 
Q 1547 409 2034 409 
Q 2525 409 2770 889 
Q 3016 1369 3016 2328 
Q 3016 3291 2770 3770 
Q 2525 4250 2034 4250 
z
M 2034 4750 
Q 2819 4750 3233 4129 
Q 3647 3509 3647 2328 
Q 3647 1150 3233 529 
Q 2819 -91 2034 -91 
Q 1250 -91 836 529 
Q 422 1150 422 2328 
Q 422 3509 836 4129 
Q 1250 4750 2034 4750 
z
" transform="scale(0.015625)"/>
       </defs>
       <use xlink:href="#DejaVuSans-31"/>
       <use xlink:href="#DejaVuSans-30" x="63.623047"/>
      </g>
     </g>
    </g>
    <g id="xtick_4">
     <g id="line2d_7">
      <path d="M 268.64554 228.96 
L 268.64554 7.2 
" clip-path="url(#p130d80d797)" style="fill: none; stroke: #cccccc; stroke-linecap: round"/>
     </g>
     <g id="line2d_8">
      <g>
       <use xlink:href="#m9db3ecef95" x="268.64554" y="228.96" style="fill: #262626; stroke: #262626; stroke-width: 1.25"/>
      </g>
     </g>
     <g id="text_4">
      <!-- 12 -->
      <g style="fill: #262626" transform="translate(261.64679 246.818281)scale(0.11 -0.11)">
       <defs>
        <path id="DejaVuSans-32" d="M 1228 531 
L 3431 531 
L 3431 0 
L 469 0 
L 469 531 
Q 828 903 1448 1529 
Q 2069 2156 2228 2338 
Q 2531 2678 2651 2914 
Q 2772 3150 2772 3378 
Q 2772 3750 2511 3984 
Q 2250 4219 1831 4219 
Q 1534 4219 1204 4116 
Q 875 4013 500 3803 
L 500 4441 
Q 881 4594 1212 4672 
Q 1544 4750 1819 4750 
Q 2544 4750 2975 4387 
Q 3406 4025 3406 3419 
Q 3406 3131 3298 2873 
Q 3191 2616 2906 2266 
Q 2828 2175 2409 1742 
Q 1991 1309 1228 531 
z
" transform="scale(0.015625)"/>
       </defs>
       <use xlink:href="#DejaVuSans-31"/>
       <use xlink:href="#DejaVuSans-32" x="63.623047"/>
      </g>
     </g>
    </g>
    <g id="xtick_5">
     <g id="line2d_9">
      <path d="M 306.976495 228.96 
L 306.976495 7.2 
" clip-path="url(#p130d80d797)" style="fill: none; stroke: #cccccc; stroke-linecap: round"/>
     </g>
     <g id="line2d_10">
      <g>
       <use xlink:href="#m9db3ecef95" x="306.976495" y="228.96" style="fill: #262626; stroke: #262626; stroke-width: 1.25"/>
      </g>
     </g>
     <g id="text_5">
      <!-- 14 -->
      <g style="fill: #262626" transform="translate(299.977745 246.818281)scale(0.11 -0.11)">
       <defs>
        <path id="DejaVuSans-34" d="M 2419 4116 
L 825 1625 
L 2419 1625 
L 2419 4116 
z
M 2253 4666 
L 3047 4666 
L 3047 1625 
L 3713 1625 
L 3713 1100 
L 3047 1100 
L 3047 0 
L 2419 0 
L 2419 1100 
L 313 1100 
L 313 1709 
L 2253 4666 
z
" transform="scale(0.015625)"/>
       </defs>
       <use xlink:href="#DejaVuSans-31"/>
       <use xlink:href="#DejaVuSans-34" x="63.623047"/>
      </g>
     </g>
    </g>
    <g id="xtick_6">
     <g id="line2d_11">
      <path d="M 345.307451 228.96 
L 345.307451 7.2 
" clip-path="url(#p130d80d797)" style="fill: none; stroke: #cccccc; stroke-linecap: round"/>
     </g>
     <g id="line2d_12">
      <g>
       <use xlink:href="#m9db3ecef95" x="345.307451" y="228.96" style="fill: #262626; stroke: #262626; stroke-width: 1.25"/>
      </g>
     </g>
     <g id="text_6">
      <!-- 16 -->
      <g style="fill: #262626" transform="translate(338.308701 246.818281)scale(0.11 -0.11)">
       <use xlink:href="#DejaVuSans-31"/>
       <use xlink:href="#DejaVuSans-36" x="63.623047"/>
      </g>
     </g>
    </g>
    <g id="xtick_7">
     <g id="line2d_13">
      <path d="M 383.638407 228.96 
L 383.638407 7.2 
" clip-path="url(#p130d80d797)" style="fill: none; stroke: #cccccc; stroke-linecap: round"/>
     </g>
     <g id="line2d_14">
      <g>
       <use xlink:href="#m9db3ecef95" x="383.638407" y="228.96" style="fill: #262626; stroke: #262626; stroke-width: 1.25"/>
      </g>
     </g>
     <g id="text_7">
      <!-- 18 -->
      <g style="fill: #262626" transform="translate(376.639657 246.818281)scale(0.11 -0.11)">
       <use xlink:href="#DejaVuSans-31"/>
       <use xlink:href="#DejaVuSans-38" x="63.623047"/>
      </g>
     </g>
    </g>
    <g id="xtick_8">
     <g id="line2d_15">
      <path d="M 421.969363 228.96 
L 421.969363 7.2 
" clip-path="url(#p130d80d797)" style="fill: none; stroke: #cccccc; stroke-linecap: round"/>
     </g>
     <g id="line2d_16">
      <g>
       <use xlink:href="#m9db3ecef95" x="421.969363" y="228.96" style="fill: #262626; stroke: #262626; stroke-width: 1.25"/>
      </g>
     </g>
     <g id="text_8">
      <!-- 20 -->
      <g style="fill: #262626" transform="translate(414.970613 246.818281)scale(0.11 -0.11)">
       <use xlink:href="#DejaVuSans-32"/>
       <use xlink:href="#DejaVuSans-30" x="63.623047"/>
      </g>
     </g>
    </g>
    <g id="text_9">
     <!-- MAE -->
     <g style="fill: #262626" transform="translate(273.392812 262.224063)scale(0.12 -0.12)">
      <defs>
       <path id="DejaVuSans-4d" d="M 628 4666 
L 1569 4666 
L 2759 1491 
L 3956 4666 
L 4897 4666 
L 4897 0 
L 4281 0 
L 4281 4097 
L 3078 897 
L 2444 897 
L 1241 4097 
L 1241 0 
L 628 0 
L 628 4666 
z
" transform="scale(0.015625)"/>
       <path id="DejaVuSans-41" d="M 2188 4044 
L 1331 1722 
L 3047 1722 
L 2188 4044 
z
M 1831 4666 
L 2547 4666 
L 4325 0 
L 3669 0 
L 3244 1197 
L 1141 1197 
L 716 0 
L 50 0 
L 1831 4666 
z
" transform="scale(0.015625)"/>
       <path id="DejaVuSans-45" d="M 628 4666 
L 3578 4666 
L 3578 4134 
L 1259 4134 
L 1259 2753 
L 3481 2753 
L 3481 2222 
L 1259 2222 
L 1259 531 
L 3634 531 
L 3634 0 
L 628 0 
L 628 4666 
z
" transform="scale(0.015625)"/>
      </defs>
      <use xlink:href="#DejaVuSans-4d"/>
      <use xlink:href="#DejaVuSans-41" x="86.279297"/>
      <use xlink:href="#DejaVuSans-45" x="154.6875"/>
     </g>
    </g>
   </g>
   <g id="matplotlib.axis_2">
    <g id="ytick_1">
     <g id="line2d_17">
      <defs>
       <path id="mbacdfb4f7b" d="M 0 0 
L -6 0 
" style="stroke: #262626; stroke-width: 1.25"/>
      </defs>
      <g>
       <use xlink:href="#mbacdfb4f7b" x="119.065313" y="25.68" style="fill: #262626; stroke: #262626; stroke-width: 1.25"/>
      </g>
     </g>
     <g id="text_10">
      <!-- deep -->
      <g style="fill: #262626" transform="translate(82.061875 29.859141)scale(0.11 -0.11)">
       <defs>
        <path id="DejaVuSans-64" d="M 2906 2969 
L 2906 4863 
L 3481 4863 
L 3481 0 
L 2906 0 
L 2906 525 
Q 2725 213 2448 61 
Q 2172 -91 1784 -91 
Q 1150 -91 751 415 
Q 353 922 353 1747 
Q 353 2572 751 3078 
Q 1150 3584 1784 3584 
Q 2172 3584 2448 3432 
Q 2725 3281 2906 2969 
z
M 947 1747 
Q 947 1113 1208 752 
Q 1469 391 1925 391 
Q 2381 391 2643 752 
Q 2906 1113 2906 1747 
Q 2906 2381 2643 2742 
Q 2381 3103 1925 3103 
Q 1469 3103 1208 2742 
Q 947 2381 947 1747 
z
" transform="scale(0.015625)"/>
        <path id="DejaVuSans-65" d="M 3597 1894 
L 3597 1613 
L 953 1613 
Q 991 1019 1311 708 
Q 1631 397 2203 397 
Q 2534 397 2845 478 
Q 3156 559 3463 722 
L 3463 178 
Q 3153 47 2828 -22 
Q 2503 -91 2169 -91 
Q 1331 -91 842 396 
Q 353 884 353 1716 
Q 353 2575 817 3079 
Q 1281 3584 2069 3584 
Q 2775 3584 3186 3129 
Q 3597 2675 3597 1894 
z
M 3022 2063 
Q 3016 2534 2758 2815 
Q 2500 3097 2075 3097 
Q 1594 3097 1305 2825 
Q 1016 2553 972 2059 
L 3022 2063 
z
" transform="scale(0.015625)"/>
        <path id="DejaVuSans-70" d="M 1159 525 
L 1159 -1331 
L 581 -1331 
L 581 3500 
L 1159 3500 
L 1159 2969 
Q 1341 3281 1617 3432 
Q 1894 3584 2278 3584 
Q 2916 3584 3314 3078 
Q 3713 2572 3713 1747 
Q 3713 922 3314 415 
Q 2916 -91 2278 -91 
Q 1894 -91 1617 61 
Q 1341 213 1159 525 
z
M 3116 1747 
Q 3116 2381 2855 2742 
Q 2594 3103 2138 3103 
Q 1681 3103 1420 2742 
Q 1159 2381 1159 1747 
Q 1159 1113 1420 752 
Q 1681 391 2138 391 
Q 2594 391 2855 752 
Q 3116 1113 3116 1747 
z
" transform="scale(0.015625)"/>
       </defs>
       <use xlink:href="#DejaVuSans-64"/>
       <use xlink:href="#DejaVuSans-65" x="63.476562"/>
       <use xlink:href="#DejaVuSans-65" x="125"/>
       <use xlink:href="#DejaVuSans-70" x="186.523438"/>
      </g>
     </g>
    </g>
    <g id="ytick_2">
     <g id="line2d_18">
      <g>
       <use xlink:href="#mbacdfb4f7b" x="119.065313" y="62.64" style="fill: #262626; stroke: #262626; stroke-width: 1.25"/>
      </g>
     </g>
     <g id="text_11">
      <!-- dummy -->
      <g style="fill: #262626" transform="translate(67.670781 66.819141)scale(0.11 -0.11)">
       <defs>
        <path id="DejaVuSans-75" d="M 544 1381 
L 544 3500 
L 1119 3500 
L 1119 1403 
Q 1119 906 1312 657 
Q 1506 409 1894 409 
Q 2359 409 2629 706 
Q 2900 1003 2900 1516 
L 2900 3500 
L 3475 3500 
L 3475 0 
L 2900 0 
L 2900 538 
Q 2691 219 2414 64 
Q 2138 -91 1772 -91 
Q 1169 -91 856 284 
Q 544 659 544 1381 
z
M 1991 3584 
L 1991 3584 
z
" transform="scale(0.015625)"/>
        <path id="DejaVuSans-6d" d="M 3328 2828 
Q 3544 3216 3844 3400 
Q 4144 3584 4550 3584 
Q 5097 3584 5394 3201 
Q 5691 2819 5691 2113 
L 5691 0 
L 5113 0 
L 5113 2094 
Q 5113 2597 4934 2840 
Q 4756 3084 4391 3084 
Q 3944 3084 3684 2787 
Q 3425 2491 3425 1978 
L 3425 0 
L 2847 0 
L 2847 2094 
Q 2847 2600 2669 2842 
Q 2491 3084 2119 3084 
Q 1678 3084 1418 2786 
Q 1159 2488 1159 1978 
L 1159 0 
L 581 0 
L 581 3500 
L 1159 3500 
L 1159 2956 
Q 1356 3278 1631 3431 
Q 1906 3584 2284 3584 
Q 2666 3584 2933 3390 
Q 3200 3197 3328 2828 
z
" transform="scale(0.015625)"/>
        <path id="DejaVuSans-79" d="M 2059 -325 
Q 1816 -950 1584 -1140 
Q 1353 -1331 966 -1331 
L 506 -1331 
L 506 -850 
L 844 -850 
Q 1081 -850 1212 -737 
Q 1344 -625 1503 -206 
L 1606 56 
L 191 3500 
L 800 3500 
L 1894 763 
L 2988 3500 
L 3597 3500 
L 2059 -325 
z
" transform="scale(0.015625)"/>
       </defs>
       <use xlink:href="#DejaVuSans-64"/>
       <use xlink:href="#DejaVuSans-75" x="63.476562"/>
       <use xlink:href="#DejaVuSans-6d" x="126.855469"/>
       <use xlink:href="#DejaVuSans-6d" x="224.267578"/>
       <use xlink:href="#DejaVuSans-79" x="321.679688"/>
      </g>
     </g>
    </g>
    <g id="ytick_3">
     <g id="line2d_19">
      <g>
       <use xlink:href="#mbacdfb4f7b" x="119.065313" y="99.6" style="fill: #262626; stroke: #262626; stroke-width: 1.25"/>
      </g>
     </g>
     <g id="text_12">
      <!-- filterbank-riemann -->
      <g style="fill: #262626" transform="translate(7.2 103.779141)scale(0.11 -0.11)">
       <defs>
        <path id="DejaVuSans-66" d="M 2375 4863 
L 2375 4384 
L 1825 4384 
Q 1516 4384 1395 4259 
Q 1275 4134 1275 3809 
L 1275 3500 
L 2222 3500 
L 2222 3053 
L 1275 3053 
L 1275 0 
L 697 0 
L 697 3053 
L 147 3053 
L 147 3500 
L 697 3500 
L 697 3744 
Q 697 4328 969 4595 
Q 1241 4863 1831 4863 
L 2375 4863 
z
" transform="scale(0.015625)"/>
        <path id="DejaVuSans-69" d="M 603 3500 
L 1178 3500 
L 1178 0 
L 603 0 
L 603 3500 
z
M 603 4863 
L 1178 4863 
L 1178 4134 
L 603 4134 
L 603 4863 
z
" transform="scale(0.015625)"/>
        <path id="DejaVuSans-6c" d="M 603 4863 
L 1178 4863 
L 1178 0 
L 603 0 
L 603 4863 
z
" transform="scale(0.015625)"/>
        <path id="DejaVuSans-74" d="M 1172 4494 
L 1172 3500 
L 2356 3500 
L 2356 3053 
L 1172 3053 
L 1172 1153 
Q 1172 725 1289 603 
Q 1406 481 1766 481 
L 2356 481 
L 2356 0 
L 1766 0 
Q 1100 0 847 248 
Q 594 497 594 1153 
L 594 3053 
L 172 3053 
L 172 3500 
L 594 3500 
L 594 4494 
L 1172 4494 
z
" transform="scale(0.015625)"/>
        <path id="DejaVuSans-72" d="M 2631 2963 
Q 2534 3019 2420 3045 
Q 2306 3072 2169 3072 
Q 1681 3072 1420 2755 
Q 1159 2438 1159 1844 
L 1159 0 
L 581 0 
L 581 3500 
L 1159 3500 
L 1159 2956 
Q 1341 3275 1631 3429 
Q 1922 3584 2338 3584 
Q 2397 3584 2469 3576 
Q 2541 3569 2628 3553 
L 2631 2963 
z
" transform="scale(0.015625)"/>
        <path id="DejaVuSans-62" d="M 3116 1747 
Q 3116 2381 2855 2742 
Q 2594 3103 2138 3103 
Q 1681 3103 1420 2742 
Q 1159 2381 1159 1747 
Q 1159 1113 1420 752 
Q 1681 391 2138 391 
Q 2594 391 2855 752 
Q 3116 1113 3116 1747 
z
M 1159 2969 
Q 1341 3281 1617 3432 
Q 1894 3584 2278 3584 
Q 2916 3584 3314 3078 
Q 3713 2572 3713 1747 
Q 3713 922 3314 415 
Q 2916 -91 2278 -91 
Q 1894 -91 1617 61 
Q 1341 213 1159 525 
L 1159 0 
L 581 0 
L 581 4863 
L 1159 4863 
L 1159 2969 
z
" transform="scale(0.015625)"/>
        <path id="DejaVuSans-61" d="M 2194 1759 
Q 1497 1759 1228 1600 
Q 959 1441 959 1056 
Q 959 750 1161 570 
Q 1363 391 1709 391 
Q 2188 391 2477 730 
Q 2766 1069 2766 1631 
L 2766 1759 
L 2194 1759 
z
M 3341 1997 
L 3341 0 
L 2766 0 
L 2766 531 
Q 2569 213 2275 61 
Q 1981 -91 1556 -91 
Q 1019 -91 701 211 
Q 384 513 384 1019 
Q 384 1609 779 1909 
Q 1175 2209 1959 2209 
L 2766 2209 
L 2766 2266 
Q 2766 2663 2505 2880 
Q 2244 3097 1772 3097 
Q 1472 3097 1187 3025 
Q 903 2953 641 2809 
L 641 3341 
Q 956 3463 1253 3523 
Q 1550 3584 1831 3584 
Q 2591 3584 2966 3190 
Q 3341 2797 3341 1997 
z
" transform="scale(0.015625)"/>
        <path id="DejaVuSans-6e" d="M 3513 2113 
L 3513 0 
L 2938 0 
L 2938 2094 
Q 2938 2591 2744 2837 
Q 2550 3084 2163 3084 
Q 1697 3084 1428 2787 
Q 1159 2491 1159 1978 
L 1159 0 
L 581 0 
L 581 3500 
L 1159 3500 
L 1159 2956 
Q 1366 3272 1645 3428 
Q 1925 3584 2291 3584 
Q 2894 3584 3203 3211 
Q 3513 2838 3513 2113 
z
" transform="scale(0.015625)"/>
        <path id="DejaVuSans-6b" d="M 581 4863 
L 1159 4863 
L 1159 1991 
L 2875 3500 
L 3609 3500 
L 1753 1863 
L 3688 0 
L 2938 0 
L 1159 1709 
L 1159 0 
L 581 0 
L 581 4863 
z
" transform="scale(0.015625)"/>
        <path id="DejaVuSans-2d" d="M 313 2009 
L 1997 2009 
L 1997 1497 
L 313 1497 
L 313 2009 
z
" transform="scale(0.015625)"/>
       </defs>
       <use xlink:href="#DejaVuSans-66"/>
       <use xlink:href="#DejaVuSans-69" x="35.205078"/>
       <use xlink:href="#DejaVuSans-6c" x="62.988281"/>
       <use xlink:href="#DejaVuSans-74" x="90.771484"/>
       <use xlink:href="#DejaVuSans-65" x="129.980469"/>
       <use xlink:href="#DejaVuSans-72" x="191.503906"/>
       <use xlink:href="#DejaVuSans-62" x="232.617188"/>
       <use xlink:href="#DejaVuSans-61" x="296.09375"/>
       <use xlink:href="#DejaVuSans-6e" x="357.373047"/>
       <use xlink:href="#DejaVuSans-6b" x="420.751953"/>
       <use xlink:href="#DejaVuSans-2d" x="478.662109"/>
       <use xlink:href="#DejaVuSans-72" x="514.746094"/>
       <use xlink:href="#DejaVuSans-69" x="555.859375"/>
       <use xlink:href="#DejaVuSans-65" x="583.642578"/>
       <use xlink:href="#DejaVuSans-6d" x="645.166016"/>
       <use xlink:href="#DejaVuSans-61" x="742.578125"/>
       <use xlink:href="#DejaVuSans-6e" x="803.857422"/>
       <use xlink:href="#DejaVuSans-6e" x="867.236328"/>
      </g>
     </g>
    </g>
    <g id="ytick_4">
     <g id="line2d_20">
      <g>
       <use xlink:href="#mbacdfb4f7b" x="119.065313" y="136.56" style="fill: #262626; stroke: #262626; stroke-width: 1.25"/>
      </g>
     </g>
     <g id="text_13">
      <!-- filterbank-source -->
      <g style="fill: #262626" transform="translate(16.421094 140.739141)scale(0.11 -0.11)">
       <defs>
        <path id="DejaVuSans-73" d="M 2834 3397 
L 2834 2853 
Q 2591 2978 2328 3040 
Q 2066 3103 1784 3103 
Q 1356 3103 1142 2972 
Q 928 2841 928 2578 
Q 928 2378 1081 2264 
Q 1234 2150 1697 2047 
L 1894 2003 
Q 2506 1872 2764 1633 
Q 3022 1394 3022 966 
Q 3022 478 2636 193 
Q 2250 -91 1575 -91 
Q 1294 -91 989 -36 
Q 684 19 347 128 
L 347 722 
Q 666 556 975 473 
Q 1284 391 1588 391 
Q 1994 391 2212 530 
Q 2431 669 2431 922 
Q 2431 1156 2273 1281 
Q 2116 1406 1581 1522 
L 1381 1569 
Q 847 1681 609 1914 
Q 372 2147 372 2553 
Q 372 3047 722 3315 
Q 1072 3584 1716 3584 
Q 2034 3584 2315 3537 
Q 2597 3491 2834 3397 
z
" transform="scale(0.015625)"/>
        <path id="DejaVuSans-6f" d="M 1959 3097 
Q 1497 3097 1228 2736 
Q 959 2375 959 1747 
Q 959 1119 1226 758 
Q 1494 397 1959 397 
Q 2419 397 2687 759 
Q 2956 1122 2956 1747 
Q 2956 2369 2687 2733 
Q 2419 3097 1959 3097 
z
M 1959 3584 
Q 2709 3584 3137 3096 
Q 3566 2609 3566 1747 
Q 3566 888 3137 398 
Q 2709 -91 1959 -91 
Q 1206 -91 779 398 
Q 353 888 353 1747 
Q 353 2609 779 3096 
Q 1206 3584 1959 3584 
z
" transform="scale(0.015625)"/>
        <path id="DejaVuSans-63" d="M 3122 3366 
L 3122 2828 
Q 2878 2963 2633 3030 
Q 2388 3097 2138 3097 
Q 1578 3097 1268 2742 
Q 959 2388 959 1747 
Q 959 1106 1268 751 
Q 1578 397 2138 397 
Q 2388 397 2633 464 
Q 2878 531 3122 666 
L 3122 134 
Q 2881 22 2623 -34 
Q 2366 -91 2075 -91 
Q 1284 -91 818 406 
Q 353 903 353 1747 
Q 353 2603 823 3093 
Q 1294 3584 2113 3584 
Q 2378 3584 2631 3529 
Q 2884 3475 3122 3366 
z
" transform="scale(0.015625)"/>
       </defs>
       <use xlink:href="#DejaVuSans-66"/>
       <use xlink:href="#DejaVuSans-69" x="35.205078"/>
       <use xlink:href="#DejaVuSans-6c" x="62.988281"/>
       <use xlink:href="#DejaVuSans-74" x="90.771484"/>
       <use xlink:href="#DejaVuSans-65" x="129.980469"/>
       <use xlink:href="#DejaVuSans-72" x="191.503906"/>
       <use xlink:href="#DejaVuSans-62" x="232.617188"/>
       <use xlink:href="#DejaVuSans-61" x="296.09375"/>
       <use xlink:href="#DejaVuSans-6e" x="357.373047"/>
       <use xlink:href="#DejaVuSans-6b" x="420.751953"/>
       <use xlink:href="#DejaVuSans-2d" x="478.662109"/>
       <use xlink:href="#DejaVuSans-73" x="514.746094"/>
       <use xlink:href="#DejaVuSans-6f" x="566.845703"/>
       <use xlink:href="#DejaVuSans-75" x="628.027344"/>
       <use xlink:href="#DejaVuSans-72" x="691.40625"/>
       <use xlink:href="#DejaVuSans-63" x="730.269531"/>
       <use xlink:href="#DejaVuSans-65" x="785.25"/>
      </g>
     </g>
    </g>
    <g id="ytick_5">
     <g id="line2d_21">
      <g>
       <use xlink:href="#mbacdfb4f7b" x="119.065313" y="173.52" style="fill: #262626; stroke: #262626; stroke-width: 1.25"/>
      </g>
     </g>
     <g id="text_14">
      <!-- handcrafted -->
      <g style="fill: #262626" transform="translate(42.843438 177.699141)scale(0.11 -0.11)">
       <defs>
        <path id="DejaVuSans-68" d="M 3513 2113 
L 3513 0 
L 2938 0 
L 2938 2094 
Q 2938 2591 2744 2837 
Q 2550 3084 2163 3084 
Q 1697 3084 1428 2787 
Q 1159 2491 1159 1978 
L 1159 0 
L 581 0 
L 581 4863 
L 1159 4863 
L 1159 2956 
Q 1366 3272 1645 3428 
Q 1925 3584 2291 3584 
Q 2894 3584 3203 3211 
Q 3513 2838 3513 2113 
z
" transform="scale(0.015625)"/>
       </defs>
       <use xlink:href="#DejaVuSans-68"/>
       <use xlink:href="#DejaVuSans-61" x="63.378906"/>
       <use xlink:href="#DejaVuSans-6e" x="124.658203"/>
       <use xlink:href="#DejaVuSans-64" x="188.037109"/>
       <use xlink:href="#DejaVuSans-63" x="251.513672"/>
       <use xlink:href="#DejaVuSans-72" x="306.494141"/>
       <use xlink:href="#DejaVuSans-61" x="347.607422"/>
       <use xlink:href="#DejaVuSans-66" x="408.886719"/>
       <use xlink:href="#DejaVuSans-74" x="442.341797"/>
       <use xlink:href="#DejaVuSans-65" x="481.550781"/>
       <use xlink:href="#DejaVuSans-64" x="543.074219"/>
      </g>
     </g>
    </g>
    <g id="ytick_6">
     <g id="line2d_22">
      <g>
       <use xlink:href="#mbacdfb4f7b" x="119.065313" y="210.48" style="fill: #262626; stroke: #262626; stroke-width: 1.25"/>
      </g>
     </g>
     <g id="text_15">
      <!-- shallow -->
      <g style="fill: #262626" transform="translate(68.284375 214.659141)scale(0.11 -0.11)">
       <defs>
        <path id="DejaVuSans-77" d="M 269 3500 
L 844 3500 
L 1563 769 
L 2278 3500 
L 2956 3500 
L 3675 769 
L 4391 3500 
L 4966 3500 
L 4050 0 
L 3372 0 
L 2619 2869 
L 1863 0 
L 1184 0 
L 269 3500 
z
" transform="scale(0.015625)"/>
       </defs>
       <use xlink:href="#DejaVuSans-73"/>
       <use xlink:href="#DejaVuSans-68" x="52.099609"/>
       <use xlink:href="#DejaVuSans-61" x="115.478516"/>
       <use xlink:href="#DejaVuSans-6c" x="176.757812"/>
       <use xlink:href="#DejaVuSans-6c" x="204.541016"/>
       <use xlink:href="#DejaVuSans-6f" x="232.324219"/>
       <use xlink:href="#DejaVuSans-77" x="293.505859"/>
      </g>
     </g>
    </g>
   </g>
   <g id="patch_3">
    <path d="M 165.063593 14.592 
L 165.063593 36.768 
L 196.388024 36.768 
L 196.388024 14.592 
L 165.063593 14.592 
z
" clip-path="url(#p130d80d797)" style="fill: #7891b5; stroke: #5a5a5a; stroke-width: 1.5; stroke-linejoin: miter"/>
   </g>
   <g id="patch_4">
    <path d="M 375.075022 51.552 
L 375.075022 73.728 
L 424.249763 73.728 
L 424.249763 51.552 
L 375.075022 51.552 
z
" clip-path="url(#p130d80d797)" style="fill: #aeb9cb; stroke: #5a5a5a; stroke-width: 1.5; stroke-linejoin: miter"/>
   </g>
   <g id="patch_5">
    <path d="M 235.377871 88.512 
L 235.377871 110.688 
L 269.335386 110.688 
L 269.335386 88.512 
L 235.377871 88.512 
z
" clip-path="url(#p130d80d797)" style="fill: #e5e5ea; stroke: #5a5a5a; stroke-width: 1.5; stroke-linejoin: miter"/>
   </g>
   <g id="patch_6">
    <path d="M 188.393392 125.472 
L 188.393392 147.648 
L 231.46334 147.648 
L 231.46334 125.472 
L 188.393392 125.472 
z
" clip-path="url(#p130d80d797)" style="fill: #efe1e0; stroke: #5a5a5a; stroke-width: 1.5; stroke-linejoin: miter"/>
   </g>
   <g id="patch_7">
    <path d="M 227.626937 162.432 
L 227.626937 184.608 
L 243.782306 184.608 
L 243.782306 162.432 
L 227.626937 162.432 
z
" clip-path="url(#p130d80d797)" style="fill: #d2acaa; stroke: #5a5a5a; stroke-width: 1.5; stroke-linejoin: miter"/>
   </g>
   <g id="patch_8">
    <path d="M 191.199746 199.392 
L 191.199746 221.568 
L 226.528387 221.568 
L 226.528387 199.392 
L 191.199746 199.392 
z
" clip-path="url(#p130d80d797)" style="fill: #b77977; stroke: #5a5a5a; stroke-width: 1.5; stroke-linejoin: miter"/>
   </g>
   <g id="line2d_23">
    <path d="M 165.063593 25.68 
L 134.283494 25.68 
" clip-path="url(#p130d80d797)" style="fill: none; stroke: #5a5a5a; stroke-width: 1.5; stroke-linecap: round"/>
   </g>
   <g id="line2d_24">
    <path d="M 196.388024 25.68 
L 287.66857 25.68 
" clip-path="url(#p130d80d797)" style="fill: none; stroke: #5a5a5a; stroke-width: 1.5; stroke-linecap: round"/>
   </g>
   <g id="line2d_25">
    <path d="M 134.283494 20.136 
L 134.283494 31.224 
" clip-path="url(#p130d80d797)" style="fill: none; stroke: #5a5a5a; stroke-width: 1.5; stroke-linecap: round"/>
   </g>
   <g id="line2d_26">
    <path d="M 287.66857 20.136 
L 287.66857 31.224 
" clip-path="url(#p130d80d797)" style="fill: none; stroke: #5a5a5a; stroke-width: 1.5; stroke-linecap: round"/>
   </g>
   <g id="line2d_27"/>
   <g id="line2d_28">
    <path d="M 375.075022 62.64 
L 349.542625 62.64 
" clip-path="url(#p130d80d797)" style="fill: none; stroke: #5a5a5a; stroke-width: 1.5; stroke-linecap: round"/>
   </g>
   <g id="line2d_29">
    <path d="M 424.249763 62.64 
L 438.647131 62.64 
" clip-path="url(#p130d80d797)" style="fill: none; stroke: #5a5a5a; stroke-width: 1.5; stroke-linecap: round"/>
   </g>
   <g id="line2d_30">
    <path d="M 349.542625 57.096 
L 349.542625 68.184 
" clip-path="url(#p130d80d797)" style="fill: none; stroke: #5a5a5a; stroke-width: 1.5; stroke-linecap: round"/>
   </g>
   <g id="line2d_31">
    <path d="M 438.647131 57.096 
L 438.647131 68.184 
" clip-path="url(#p130d80d797)" style="fill: none; stroke: #5a5a5a; stroke-width: 1.5; stroke-linecap: round"/>
   </g>
   <g id="line2d_32"/>
   <g id="line2d_33">
    <path d="M 235.377871 99.6 
L 187.807756 99.6 
" clip-path="url(#p130d80d797)" style="fill: none; stroke: #5a5a5a; stroke-width: 1.5; stroke-linecap: round"/>
   </g>
   <g id="line2d_34">
    <path d="M 269.335386 99.6 
L 296.870134 99.6 
" clip-path="url(#p130d80d797)" style="fill: none; stroke: #5a5a5a; stroke-width: 1.5; stroke-linecap: round"/>
   </g>
   <g id="line2d_35">
    <path d="M 187.807756 94.056 
L 187.807756 105.144 
" clip-path="url(#p130d80d797)" style="fill: none; stroke: #5a5a5a; stroke-width: 1.5; stroke-linecap: round"/>
   </g>
   <g id="line2d_36">
    <path d="M 296.870134 94.056 
L 296.870134 105.144 
" clip-path="url(#p130d80d797)" style="fill: none; stroke: #5a5a5a; stroke-width: 1.5; stroke-linecap: round"/>
   </g>
   <g id="line2d_37"/>
   <g id="line2d_38">
    <path d="M 188.393392 136.56 
L 157.133399 136.56 
" clip-path="url(#p130d80d797)" style="fill: none; stroke: #5a5a5a; stroke-width: 1.5; stroke-linecap: round"/>
   </g>
   <g id="line2d_39">
    <path d="M 231.46334 136.56 
L 258.744131 136.56 
" clip-path="url(#p130d80d797)" style="fill: none; stroke: #5a5a5a; stroke-width: 1.5; stroke-linecap: round"/>
   </g>
   <g id="line2d_40">
    <path d="M 157.133399 131.016 
L 157.133399 142.104 
" clip-path="url(#p130d80d797)" style="fill: none; stroke: #5a5a5a; stroke-width: 1.5; stroke-linecap: round"/>
   </g>
   <g id="line2d_41">
    <path d="M 258.744131 131.016 
L 258.744131 142.104 
" clip-path="url(#p130d80d797)" style="fill: none; stroke: #5a5a5a; stroke-width: 1.5; stroke-linecap: round"/>
   </g>
   <g id="line2d_42"/>
   <g id="line2d_43">
    <path d="M 227.626937 173.52 
L 171.402777 173.52 
" clip-path="url(#p130d80d797)" style="fill: none; stroke: #5a5a5a; stroke-width: 1.5; stroke-linecap: round"/>
   </g>
   <g id="line2d_44">
    <path d="M 243.782306 173.52 
L 305.157022 173.52 
" clip-path="url(#p130d80d797)" style="fill: none; stroke: #5a5a5a; stroke-width: 1.5; stroke-linecap: round"/>
   </g>
   <g id="line2d_45">
    <path d="M 171.402777 167.976 
L 171.402777 179.064 
" clip-path="url(#p130d80d797)" style="fill: none; stroke: #5a5a5a; stroke-width: 1.5; stroke-linecap: round"/>
   </g>
   <g id="line2d_46">
    <path d="M 305.157022 167.976 
L 305.157022 179.064 
" clip-path="url(#p130d80d797)" style="fill: none; stroke: #5a5a5a; stroke-width: 1.5; stroke-linecap: round"/>
   </g>
   <g id="line2d_47"/>
   <g id="line2d_48">
    <path d="M 191.199746 210.48 
L 145.637212 210.48 
" clip-path="url(#p130d80d797)" style="fill: none; stroke: #5a5a5a; stroke-width: 1.5; stroke-linecap: round"/>
   </g>
   <g id="line2d_49">
    <path d="M 226.528387 210.48 
L 252.367441 210.48 
" clip-path="url(#p130d80d797)" style="fill: none; stroke: #5a5a5a; stroke-width: 1.5; stroke-linecap: round"/>
   </g>
   <g id="line2d_50">
    <path d="M 145.637212 204.936 
L 145.637212 216.024 
" clip-path="url(#p130d80d797)" style="fill: none; stroke: #5a5a5a; stroke-width: 1.5; stroke-linecap: round"/>
   </g>
   <g id="line2d_51">
    <path d="M 252.367441 204.936 
L 252.367441 216.024 
" clip-path="url(#p130d80d797)" style="fill: none; stroke: #5a5a5a; stroke-width: 1.5; stroke-linecap: round"/>
   </g>
   <g id="line2d_52"/>
   <g id="line2d_53">
    <path d="M 174.145559 14.592 
L 174.145559 36.768 
" clip-path="url(#p130d80d797)" style="fill: none; stroke: #5a5a5a; stroke-width: 1.5; stroke-linecap: round"/>
   </g>
   <g id="line2d_54">
    <path d="M 396.001325 51.552 
L 396.001325 73.728 
" clip-path="url(#p130d80d797)" style="fill: none; stroke: #5a5a5a; stroke-width: 1.5; stroke-linecap: round"/>
   </g>
   <g id="line2d_55">
    <path d="M 251.115982 88.512 
L 251.115982 110.688 
" clip-path="url(#p130d80d797)" style="fill: none; stroke: #5a5a5a; stroke-width: 1.5; stroke-linecap: round"/>
   </g>
   <g id="line2d_56">
    <path d="M 209.090736 125.472 
L 209.090736 147.648 
" clip-path="url(#p130d80d797)" style="fill: none; stroke: #5a5a5a; stroke-width: 1.5; stroke-linecap: round"/>
   </g>
   <g id="line2d_57">
    <path d="M 236.8598 162.432 
L 236.8598 184.608 
" clip-path="url(#p130d80d797)" style="fill: none; stroke: #5a5a5a; stroke-width: 1.5; stroke-linecap: round"/>
   </g>
   <g id="line2d_58">
    <path d="M 205.207583 199.392 
L 205.207583 221.568 
" clip-path="url(#p130d80d797)" style="fill: none; stroke: #5a5a5a; stroke-width: 1.5; stroke-linecap: round"/>
   </g>
   <g id="patch_9">
    <path d="M 153.652673 228.96 
L 421.969363 228.96 
" style="fill: none; stroke: #262626; stroke-width: 1.25; stroke-linejoin: miter; stroke-linecap: square"/>
   </g>
   <g id="PathCollection_1">
    <defs>
     <path id="C0_0_88e22534de" d="M 0 2 
C 0.530406 2 1.03916 1.789267 1.414214 1.414214 
C 1.789267 1.03916 2 0.530406 2 -0 
C 2 -0.530406 1.789267 -1.03916 1.414214 -1.414214 
C 1.03916 -1.789267 0.530406 -2 0 -2 
C -0.530406 -2 -1.03916 -1.789267 -1.414214 -1.414214 
C -1.789267 -1.03916 -2 -0.530406 -2 0 
C -2 0.530406 -1.789267 1.03916 -1.414214 1.414214 
C -1.03916 1.789267 -0.530406 2 0 2 
z
"/>
    </defs>
    <g clip-path="url(#p130d80d797)">
     <use xlink:href="#C0_0_88e22534de" x="166.635025" y="22.106027" style="fill: #4c4c4c"/>
    </g>
    <g clip-path="url(#p130d80d797)">
     <use xlink:href="#C0_0_88e22534de" x="287.66857" y="23.140769" style="fill: #4c4c4c"/>
    </g>
    <g clip-path="url(#p130d80d797)">
     <use xlink:href="#C0_0_88e22534de" x="226.195231" y="23.712609" style="fill: #4c4c4c"/>
    </g>
    <g clip-path="url(#p130d80d797)">
     <use xlink:href="#C0_0_88e22534de" x="194.645437" y="27.757719" style="fill: #4c4c4c"/>
    </g>
    <g clip-path="url(#p130d80d797)">
     <use xlink:href="#C0_0_88e22534de" x="196.968887" y="22.961843" style="fill: #4c4c4c"/>
    </g>
    <g clip-path="url(#p130d80d797)">
     <use xlink:href="#C0_0_88e22534de" x="164.539783" y="22.857744" style="fill: #4c4c4c"/>
    </g>
    <g clip-path="url(#p130d80d797)">
     <use xlink:href="#C0_0_88e22534de" x="157.905618" y="27.999737" style="fill: #4c4c4c"/>
    </g>
    <g clip-path="url(#p130d80d797)">
     <use xlink:href="#C0_0_88e22534de" x="179.471662" y="28.337627" style="fill: #4c4c4c"/>
    </g>
    <g clip-path="url(#p130d80d797)">
     <use xlink:href="#C0_0_88e22534de" x="134.283494" y="27.193313" style="fill: #4c4c4c"/>
    </g>
    <g clip-path="url(#p130d80d797)">
     <use xlink:href="#C0_0_88e22534de" x="168.819455" y="23.213398" style="fill: #4c4c4c"/>
    </g>
   </g>
   <g id="PathCollection_2">
    <defs>
     <path id="C1_0_75a3dd6392" d="M 0 2 
C 0.530406 2 1.03916 1.789267 1.414214 1.414214 
C 1.789267 1.03916 2 0.530406 2 -0 
C 2 -0.530406 1.789267 -1.03916 1.414214 -1.414214 
C 1.03916 -1.789267 0.530406 -2 0 -2 
C -0.530406 -2 -1.03916 -1.789267 -1.414214 -1.414214 
C -1.789267 -1.03916 -2 -0.530406 -2 0 
C -2 0.530406 -1.789267 1.03916 -1.414214 1.414214 
C -1.03916 1.789267 -0.530406 2 0 2 
z
"/>
    </defs>
    <g clip-path="url(#p130d80d797)">
     <use xlink:href="#C1_0_75a3dd6392" x="349.542625" y="60.52645" style="fill: #4c4c4c"/>
    </g>
    <g clip-path="url(#p130d80d797)">
     <use xlink:href="#C1_0_75a3dd6392" x="424.546064" y="59.051098" style="fill: #4c4c4c"/>
    </g>
    <g clip-path="url(#p130d80d797)">
     <use xlink:href="#C1_0_75a3dd6392" x="374.241741" y="64.71731" style="fill: #4c4c4c"/>
    </g>
    <g clip-path="url(#p130d80d797)">
     <use xlink:href="#C1_0_75a3dd6392" x="427.547496" y="60.280231" style="fill: #4c4c4c"/>
    </g>
    <g clip-path="url(#p130d80d797)">
     <use xlink:href="#C1_0_75a3dd6392" x="402.051504" y="63.104218" style="fill: #4c4c4c"/>
    </g>
    <g clip-path="url(#p130d80d797)">
     <use xlink:href="#C1_0_75a3dd6392" x="363.510206" y="60.034306" style="fill: #4c4c4c"/>
    </g>
    <g clip-path="url(#p130d80d797)">
     <use xlink:href="#C1_0_75a3dd6392" x="438.647131" y="65.821014" style="fill: #4c4c4c"/>
    </g>
    <g clip-path="url(#p130d80d797)">
     <use xlink:href="#C1_0_75a3dd6392" x="377.574867" y="59.798431" style="fill: #4c4c4c"/>
    </g>
    <g clip-path="url(#p130d80d797)">
     <use xlink:href="#C1_0_75a3dd6392" x="423.360862" y="62.848464" style="fill: #4c4c4c"/>
    </g>
    <g clip-path="url(#p130d80d797)">
     <use xlink:href="#C1_0_75a3dd6392" x="389.951147" y="65.476382" style="fill: #4c4c4c"/>
    </g>
   </g>
   <g id="PathCollection_3">
    <defs>
     <path id="C2_0_7462218c5b" d="M 0 2 
C 0.530406 2 1.03916 1.789267 1.414214 1.414214 
C 1.789267 1.03916 2 0.530406 2 -0 
C 2 -0.530406 1.789267 -1.03916 1.414214 -1.414214 
C 1.03916 -1.789267 0.530406 -2 0 -2 
C -0.530406 -2 -1.03916 -1.789267 -1.414214 -1.414214 
C -1.789267 -1.03916 -2 -0.530406 -2 0 
C -2 0.530406 -1.789267 1.03916 -1.414214 1.414214 
C -1.03916 1.789267 -0.530406 2 0 2 
z
"/>
    </defs>
    <g clip-path="url(#p130d80d797)">
     <use xlink:href="#C2_0_7462218c5b" x="274.002408" y="97.731064" style="fill: #4c4c4c"/>
    </g>
    <g clip-path="url(#p130d80d797)">
     <use xlink:href="#C2_0_7462218c5b" x="234.86136" y="96.113541" style="fill: #4c4c4c"/>
    </g>
    <g clip-path="url(#p130d80d797)">
     <use xlink:href="#C2_0_7462218c5b" x="187.807756" y="96.882763" style="fill: #4c4c4c"/>
    </g>
    <g clip-path="url(#p130d80d797)">
     <use xlink:href="#C2_0_7462218c5b" x="296.870134" y="98.527697" style="fill: #4c4c4c"/>
    </g>
    <g clip-path="url(#p130d80d797)">
     <use xlink:href="#C2_0_7462218c5b" x="255.334321" y="97.228064" style="fill: #4c4c4c"/>
    </g>
    <g clip-path="url(#p130d80d797)">
     <use xlink:href="#C2_0_7462218c5b" x="236.927404" y="96.579651" style="fill: #4c4c4c"/>
    </g>
    <g clip-path="url(#p130d80d797)">
     <use xlink:href="#C2_0_7462218c5b" x="291.156133" y="98.699496" style="fill: #4c4c4c"/>
    </g>
    <g clip-path="url(#p130d80d797)">
     <use xlink:href="#C2_0_7462218c5b" x="254.665457" y="99.234355" style="fill: #4c4c4c"/>
    </g>
    <g clip-path="url(#p130d80d797)">
     <use xlink:href="#C2_0_7462218c5b" x="216.275643" y="103.027984" style="fill: #4c4c4c"/>
    </g>
    <g clip-path="url(#p130d80d797)">
     <use xlink:href="#C2_0_7462218c5b" x="247.566506" y="96.194916" style="fill: #4c4c4c"/>
    </g>
   </g>
   <g id="PathCollection_4">
    <defs>
     <path id="C3_0_abafde170e" d="M 0 2 
C 0.530406 2 1.03916 1.789267 1.414214 1.414214 
C 1.789267 1.03916 2 0.530406 2 -0 
C 2 -0.530406 1.789267 -1.03916 1.414214 -1.414214 
C 1.03916 -1.789267 0.530406 -2 0 -2 
C -0.530406 -2 -1.03916 -1.789267 -1.414214 -1.414214 
C -1.789267 -1.03916 -2 -0.530406 -2 0 
C -2 0.530406 -1.789267 1.03916 -1.414214 1.414214 
C -1.03916 1.789267 -0.530406 2 0 2 
z
"/>
    </defs>
    <g clip-path="url(#p130d80d797)">
     <use xlink:href="#C3_0_abafde170e" x="230.192996" y="134.498586" style="fill: #4c4c4c"/>
    </g>
    <g clip-path="url(#p130d80d797)">
     <use xlink:href="#C3_0_abafde170e" x="207.128015" y="139.477416" style="fill: #4c4c4c"/>
    </g>
    <g clip-path="url(#p130d80d797)">
     <use xlink:href="#C3_0_abafde170e" x="211.053456" y="138.957298" style="fill: #4c4c4c"/>
    </g>
    <g clip-path="url(#p130d80d797)">
     <use xlink:href="#C3_0_abafde170e" x="235.096639" y="137.095118" style="fill: #4c4c4c"/>
    </g>
    <g clip-path="url(#p130d80d797)">
     <use xlink:href="#C3_0_abafde170e" x="258.744131" y="136.845943" style="fill: #4c4c4c"/>
    </g>
    <g clip-path="url(#p130d80d797)">
     <use xlink:href="#C3_0_abafde170e" x="186.837255" y="139.163885" style="fill: #4c4c4c"/>
    </g>
    <g clip-path="url(#p130d80d797)">
     <use xlink:href="#C3_0_abafde170e" x="231.886789" y="137.584098" style="fill: #4c4c4c"/>
    </g>
    <g clip-path="url(#p130d80d797)">
     <use xlink:href="#C3_0_abafde170e" x="186.119729" y="135.809881" style="fill: #4c4c4c"/>
    </g>
    <g clip-path="url(#p130d80d797)">
     <use xlink:href="#C3_0_abafde170e" x="157.133399" y="133.699625" style="fill: #4c4c4c"/>
    </g>
    <g clip-path="url(#p130d80d797)">
     <use xlink:href="#C3_0_abafde170e" x="193.061805" y="135.477862" style="fill: #4c4c4c"/>
    </g>
   </g>
   <g id="PathCollection_5">
    <defs>
     <path id="C4_0_8158e0d86f" d="M 0 2 
C 0.530406 2 1.03916 1.789267 1.414214 1.414214 
C 1.789267 1.03916 2 0.530406 2 -0 
C 2 -0.530406 1.789267 -1.03916 1.414214 -1.414214 
C 1.03916 -1.789267 0.530406 -2 0 -2 
C -0.530406 -2 -1.03916 -1.789267 -1.414214 -1.414214 
C -1.789267 -1.03916 -2 -0.530406 -2 0 
C -2 0.530406 -1.789267 1.03916 -1.414214 1.414214 
C -1.03916 1.789267 -0.530406 2 0 2 
z
"/>
    </defs>
    <g clip-path="url(#p130d80d797)">
     <use xlink:href="#C4_0_8158e0d86f" x="230.81386" y="174.203943" style="fill: #4c4c4c"/>
    </g>
    <g clip-path="url(#p130d80d797)">
     <use xlink:href="#C4_0_8158e0d86f" x="241.236094" y="170.808709" style="fill: #4c4c4c"/>
    </g>
    <g clip-path="url(#p130d80d797)">
     <use xlink:href="#C4_0_8158e0d86f" x="226.564629" y="173.860399" style="fill: #4c4c4c"/>
    </g>
    <g clip-path="url(#p130d80d797)">
     <use xlink:href="#C4_0_8158e0d86f" x="305.157022" y="173.724199" style="fill: #4c4c4c"/>
    </g>
    <g clip-path="url(#p130d80d797)">
     <use xlink:href="#C4_0_8158e0d86f" x="239.156669" y="171.940136" style="fill: #4c4c4c"/>
    </g>
    <g clip-path="url(#p130d80d797)">
     <use xlink:href="#C4_0_8158e0d86f" x="244.631043" y="175.267187" style="fill: #4c4c4c"/>
    </g>
    <g clip-path="url(#p130d80d797)">
     <use xlink:href="#C4_0_8158e0d86f" x="234.562932" y="174.45756" style="fill: #4c4c4c"/>
    </g>
    <g clip-path="url(#p130d80d797)">
     <use xlink:href="#C4_0_8158e0d86f" x="207.409188" y="171.833681" style="fill: #4c4c4c"/>
    </g>
    <g clip-path="url(#p130d80d797)">
     <use xlink:href="#C4_0_8158e0d86f" x="171.402777" y="176.242997" style="fill: #4c4c4c"/>
    </g>
    <g clip-path="url(#p130d80d797)">
     <use xlink:href="#C4_0_8158e0d86f" x="252.609097" y="173.905332" style="fill: #4c4c4c"/>
    </g>
   </g>
   <g id="PathCollection_6">
    <defs>
     <path id="C5_0_e53428dd8c" d="M 0 2 
C 0.530406 2 1.03916 1.789267 1.414214 1.414214 
C 1.789267 1.03916 2 0.530406 2 -0 
C 2 -0.530406 1.789267 -1.03916 1.414214 -1.414214 
C 1.03916 -1.789267 0.530406 -2 0 -2 
C -0.530406 -2 -1.03916 -1.789267 -1.414214 -1.414214 
C -1.789267 -1.03916 -2 -0.530406 -2 0 
C -2 0.530406 -1.789267 1.03916 -1.414214 1.414214 
C -1.03916 1.789267 -0.530406 2 0 2 
z
"/>
    </defs>
    <g clip-path="url(#p130d80d797)">
     <use xlink:href="#C5_0_e53428dd8c" x="187.953268" y="210.263246" style="fill: #4c4c4c"/>
    </g>
    <g clip-path="url(#p130d80d797)">
     <use xlink:href="#C5_0_e53428dd8c" x="252.367441" y="213.220463" style="fill: #4c4c4c"/>
    </g>
    <g clip-path="url(#p130d80d797)">
     <use xlink:href="#C5_0_e53428dd8c" x="206.499825" y="210.939928" style="fill: #4c4c4c"/>
    </g>
    <g clip-path="url(#p130d80d797)">
     <use xlink:href="#C5_0_e53428dd8c" x="237.094999" y="212.437267" style="fill: #4c4c4c"/>
    </g>
    <g clip-path="url(#p130d80d797)">
     <use xlink:href="#C5_0_e53428dd8c" x="203.915341" y="208.895367" style="fill: #4c4c4c"/>
    </g>
    <g clip-path="url(#p130d80d797)">
     <use xlink:href="#C5_0_e53428dd8c" x="189.25056" y="210.14253" style="fill: #4c4c4c"/>
    </g>
    <g clip-path="url(#p130d80d797)">
     <use xlink:href="#C5_0_e53428dd8c" x="226.652932" y="207.722256" style="fill: #4c4c4c"/>
    </g>
    <g clip-path="url(#p130d80d797)">
     <use xlink:href="#C5_0_e53428dd8c" x="145.637212" y="213.068724" style="fill: #4c4c4c"/>
    </g>
    <g clip-path="url(#p130d80d797)">
     <use xlink:href="#C5_0_e53428dd8c" x="197.047307" y="210.619061" style="fill: #4c4c4c"/>
    </g>
    <g clip-path="url(#p130d80d797)">
     <use xlink:href="#C5_0_e53428dd8c" x="226.154752" y="209.75575" style="fill: #4c4c4c"/>
    </g>
   </g>
  </g>
 </g>
 <defs>
  <clipPath id="p130d80d797">
   <rect x="119.065313" y="7.2" width="334.8" height="221.76"/>
  </clipPath>
 </defs>
</svg>
